<?xml version="1.0" encoding="UTF-8"?>
<svg version="1.1" xmlns="http://www.w3.org/2000/svg" width="656" height="2188">
<path d="M0 0 C38.61 0 77.22 0 117 0 C118.98 5.445 118.98 5.445 121 11 C122.10214844 13.15595703 122.10214844 13.15595703 123.2265625 15.35546875 C125.86313607 21.15412296 125.50868894 27.05374675 125.375 33.3125 C125.37306641 35.06143555 125.37306641 35.06143555 125.37109375 36.84570312 C125.27625691 45.99745785 125.27625691 45.99745785 123 50 C121.26960563 55.0930047 120.7421667 59.79115469 120.625 65.125 C120.32587707 73.06353079 118.68330531 79.46943348 116 87 C124.415 86.505 124.415 86.505 133 86 C133.91044809 89.64179237 134.12119992 92.33923642 134.11352539 96.05371094 C134.11344986 97.27467468 134.11337433 98.49563843 134.11329651 99.75360107 C134.10555458 101.72408417 134.10555458 101.72408417 134.09765625 103.734375 C134.09579021 105.0962926 134.09436718 106.45821088 134.09336853 107.82012939 C134.08955803 111.39741889 134.07974032 114.97466752 134.06866455 118.55194092 C134.05841884 122.20519447 134.05380929 125.85845485 134.04882812 129.51171875 C134.03864794 136.67449762 134.01988591 143.83724175 134 151 C114.53429608 152.59375998 95.26916106 153.28954694 75.734375 153.23046875 C73.06536583 153.22927219 70.39636454 153.22877429 67.72735596 153.2290802 C62.20834914 153.22815765 56.68939895 153.21964952 51.17041016 153.20581055 C44.79359293 153.18987971 38.41683635 153.18482064 32.04000068 153.1855461 C25.85321867 153.18615467 19.66645943 153.18096688 13.47968292 153.17275429 C10.86247119 153.1695696 8.24525769 153.16760068 5.62804413 153.16686058 C2.00557856 153.16470813 -1.61680887 153.15599483 -5.23925781 153.14526367 C-6.86268349 153.14594345 -6.86268349 153.14594345 -8.51890564 153.14663696 C-9.49648331 153.14237198 -10.47406097 153.13810699 -11.48126221 153.13371277 C-12.33497028 153.13203692 -13.18867836 153.13036108 -14.06825638 153.12863445 C-16 153 -16 153 -17 152 C-17.14499624 150.51061211 -17.22708483 149.01497979 -17.28125 147.51953125 C-17.31863281 146.60236328 -17.35601563 145.68519531 -17.39453125 144.74023438 C-17.42933594 143.77408203 -17.46414062 142.80792969 -17.5 141.8125 C-17.56945574 139.92304669 -17.64228622 138.03371393 -17.71875 136.14453125 C-17.74904297 135.30253174 -17.77933594 134.46053223 -17.81054688 133.59301758 C-17.95190338 130.91491362 -17.95190338 130.91491362 -18.60424805 127.99243164 C-19.03400044 124.74290967 -18.63846427 123.05532531 -17.61328125 119.9765625 C-16.04651014 114.21248003 -15.64834938 108.76957404 -15.48046875 102.8359375 C-15.45276398 101.91250549 -15.4250592 100.98907349 -15.39651489 100.03765869 C-15.29118375 96.19120057 -15.20272561 92.34499496 -15.14233398 88.49755859 C-14.92919484 76.43202988 -13.75390267 66.13378726 -9.36230469 54.84057617 C-6.18414827 46.5193353 -6.67935765 37.65754429 -8 29 C-8.66 29 -9.32 29 -10 29 C-10 28.34 -10 27.68 -10 27 C-10.556875 26.7525 -11.11375 26.505 -11.6875 26.25 C-14.46269757 24.74989321 -16.7035771 23.16884385 -19 21 C-19 19.68 -19 18.36 -19 17 C-18.39671875 16.96261719 -17.7934375 16.92523438 -17.171875 16.88671875 C-10.95694557 16.48699966 -10.95694557 16.48699966 -6 13 C-5.67 12.01 -5.34 11.02 -5 10 C-4.34 10 -3.68 10 -3 10 C-2.87625 9.0925 -2.7525 8.185 -2.625 7.25 C-2 4 -2 4 0 0 Z " fill="#060C06" transform="translate(48,462)"/>
<path d="M0 0 C35.97 0 71.94 0 109 0 C110.65 4.29 112.3 8.58 114 13 C114.598125 14.4025 115.19625 15.805 115.8125 17.25 C119.12298157 27.60001135 117.52197697 38.70864284 113.9453125 48.67578125 C112.65125415 53.22637486 112.53230681 57.60792519 112.36352539 62.31152344 C112.12865618 67.75410176 111.04293872 71.97777564 109 77 C108.505 78.485 108.505 78.485 108 80 C113.28 80 118.56 80 124 80 C124.87731411 83.50925644 125.12155154 86.03111682 125.11352539 89.59472656 C125.11344986 90.71558655 125.11337433 91.83644653 125.11329651 92.99127197 C125.10813522 94.19555847 125.10297394 95.39984497 125.09765625 96.640625 C125.09553383 98.49660309 125.09553383 98.49660309 125.09336853 100.39007568 C125.0887211 103.67144941 125.07974347 106.95277373 125.06866455 110.23413086 C125.0584152 113.58577011 125.05394859 116.93741148 125.04882812 120.2890625 C125.03865103 126.85939514 125.01988949 133.42968985 125 140 C106.54838126 141.55763111 88.281583 142.27996408 69.765625 142.1953125 C67.29457719 142.19156674 64.82352787 142.1887272 62.35247803 142.18673706 C55.95442354 142.17922337 49.55646479 142.15968571 43.15844727 142.1373291 C36.58741551 142.11660094 30.01636776 142.10767864 23.4453125 142.09765625 C10.63016828 142.07642381 -2.18491069 142.04284618 -15 142 C-16.11568012 139.76863977 -16.19381143 138.37256321 -16.31640625 135.89453125 C-16.35830078 135.07533203 -16.40019531 134.25613281 -16.44335938 133.41210938 C-16.48267578 132.55423828 -16.52199219 131.69636719 -16.5625 130.8125 C-16.60568359 129.97396484 -16.64886719 129.13542969 -16.69335938 128.27148438 C-16.92762464 123.50809067 -17.04517217 118.7688904 -17 114 C-16.34 114 -15.68 114 -15 114 C-14.97494385 113.38294189 -14.9498877 112.76588379 -14.92407227 112.13012695 C-14.71422512 106.98102039 -14.4989753 101.83220728 -14.27734375 96.68359375 C-14.09993657 92.53035433 -13.94442048 88.37769425 -13.81640625 84.22265625 C-13.43027848 72.77885885 -12.83022238 61.59810877 -8.375 50.875 C-5.41686085 43.52685646 -5.03316693 35.24402423 -7.8984375 27.83984375 C-9.69175564 24.8446209 -11.98241088 23.6764384 -15 22 C-15 21.34 -15 20.68 -15 20 C-15.66 20 -16.32 20 -17 20 C-17 18.68 -17 17.36 -17 16 C-16.22914062 15.91363281 -15.45828125 15.82726562 -14.6640625 15.73828125 C-13.66117188 15.59777344 -12.65828125 15.45726562 -11.625 15.3125 C-10.62726562 15.18488281 -9.62953125 15.05726563 -8.6015625 14.92578125 C-5.85916732 14.27549303 -5.85916732 14.27549303 -4.8984375 11.98046875 C-4.45371094 10.50513672 -4.45371094 10.50513672 -4 9 C-2.68 6.03 -1.36 3.06 0 0 Z " fill="#060C07" transform="translate(55,251)"/>
<path d="M0 0 C6.64418755 4.78042638 12.32459479 10.76957189 14 19 C14.07952806 20.73285648 14.10774143 22.46847386 14.09765625 24.203125 C14.09282227 25.67265625 14.09282227 25.67265625 14.08789062 27.171875 C14.07532227 28.69554688 14.07532227 28.69554688 14.0625 30.25 C14.05798828 31.28125 14.05347656 32.3125 14.04882812 33.375 C14.03706088 35.91672573 14.02062011 38.45833319 14 41 C14.81984375 40.95359375 15.6396875 40.9071875 16.484375 40.859375 C17.56203125 40.82328125 18.6396875 40.7871875 19.75 40.75 C20.81734375 40.70359375 21.8846875 40.6571875 22.984375 40.609375 C26.77703803 41.10065259 27.66856388 42.02138006 30 45 C30.50793457 47.80786133 30.50793457 47.80786133 30.51757812 51.08203125 C30.53018677 52.31010498 30.54279541 53.53817871 30.55578613 54.8034668 C30.54862627 56.13981705 30.54042227 57.47616205 30.53125 58.8125 C30.53394577 60.18725865 30.53782889 61.56201544 30.54284668 62.93676758 C30.54873793 65.81512644 30.54019176 68.69298809 30.52148438 71.57128906 C30.49869389 75.25704016 30.51181913 78.94162622 30.53577423 82.62733459 C30.55024299 85.46529893 30.54562154 88.30298798 30.53526306 91.14096069 C30.5325987 92.49970641 30.53585541 93.85847728 30.54518127 95.2171936 C30.55536241 97.11744699 30.53708729 99.01778824 30.51757812 100.91796875 C30.51439575 101.99844482 30.51121338 103.0789209 30.50793457 104.19213867 C30 107 30 107 28.47399902 109.34877014 C25.0268939 111.64948362 21.90420172 111.55234676 17.8984375 111.50170898 C17.08497864 111.50711197 16.27151978 111.51251495 15.43341064 111.51808167 C12.74690263 111.53057985 10.06146402 111.51407117 7.375 111.49609375 C5.50699813 111.49624871 3.63899593 111.49773725 1.77099609 111.50050354 C-2.14304831 111.50188802 -6.0567265 111.48932132 -9.97070312 111.46655273 C-14.98799098 111.43816796 -20.00467029 111.44090477 -25.02200317 111.45364285 C-28.87904051 111.46059757 -32.73593717 111.4528131 -36.59295654 111.44038582 C-38.44292664 111.43586931 -40.29291183 111.43553626 -42.1428833 111.43945122 C-44.72838297 111.44236142 -47.31304382 111.42586601 -49.8984375 111.40405273 C-50.66323425 111.40855438 -51.42803101 111.41305603 -52.21600342 111.41769409 C-55.28027592 111.37473557 -57.67757849 111.14941446 -60.47399902 109.85351562 C-62.65685407 107.20217005 -62.5077144 105.3505639 -62.51757812 101.93969727 C-62.53018677 100.69152725 -62.54279541 99.44335724 -62.55578613 98.15736389 C-62.54862573 96.79370562 -62.5404216 95.43005248 -62.53125 94.06640625 C-62.53394485 92.66779816 -62.53782721 91.26919189 -62.54284668 89.87059021 C-62.54874417 86.93918014 -62.54017288 84.00825767 -62.52148438 81.0769043 C-62.49871468 77.32275011 -62.51180211 73.569741 -62.53577423 69.81562901 C-62.55024406 66.92705189 -62.54562066 64.0387452 -62.53526306 61.15015984 C-62.5325979 59.76629437 -62.5358582 58.38240421 -62.54518127 56.99856758 C-62.55536183 55.06228238 -62.53708791 53.12591094 -62.51757812 51.18969727 C-62.51439575 50.08844009 -62.51121338 48.98718292 -62.50793457 47.85255432 C-61.88172075 44.33574516 -60.80758201 43.14593822 -58 41 C-55.203125 40.609375 -55.203125 40.609375 -52.25 40.75 C-51.26515625 40.78609375 -50.2803125 40.8221875 -49.265625 40.859375 C-48.51796875 40.90578125 -47.7703125 40.9521875 -47 41 C-47.02356567 40.06317383 -47.02356567 40.06317383 -47.04760742 39.10742188 C-47.11052044 36.23837583 -47.14916731 33.36947558 -47.1875 30.5 C-47.21263672 29.51773438 -47.23777344 28.53546875 -47.26367188 27.5234375 C-47.37078182 16.81244269 -44.69582155 10.98533306 -37.34765625 3.20703125 C-27.65960454 -5.90070455 -11.17644065 -7.44364122 0 0 Z M-27 12 C-27 12.66 -27 13.32 -27 14 C-27.66 14 -28.32 14 -29 14 C-29 14.66 -29 15.32 -29 16 C-29.66 16 -30.32 16 -31 16 C-34.35967552 21.37900806 -34.36563485 25.76166403 -34.1875 31.875 C-34.125625 34.88625 -34.06375 37.8975 -34 41 C-22.45 41 -10.9 41 1 41 C1.0825 37.98875 1.165 34.9775 1.25 31.875 C1.30462402 30.46903564 1.30462402 30.46903564 1.36035156 29.03466797 C1.43368397 23.48151202 0.68324645 20.40662278 -3 16 C-3.48339844 15.37351562 -3.96679688 14.74703125 -4.46484375 14.1015625 C-8.29839198 10.25784571 -11.26392172 9.58512343 -16.6875 9.5 C-20.67764023 9.61253039 -23.5591446 9.92376608 -27 12 Z " fill="#F4F4F4" transform="translate(125,44)"/>
<path d="M0 0 C0.33 0.66 0.66 1.32 1 2 C1.99 2.33 2.98 2.66 4 3 C4 5 4 5 2.5 6.625 C2.005 7.07875 1.51 7.5325 1 8 C3.64 8 6.28 8 9 8 C9 8.66 9 9.32 9 10 C9.61875 10.144375 10.2375 10.28875 10.875 10.4375 C13 11 13 11 15 12 C14.34 13.32 13.68 14.64 13 16 C12.34 16 11.68 16 11 16 C11.12375 17.27875 11.2475 18.5575 11.375 19.875 C11.47941406 20.95394531 11.47941406 20.95394531 11.5859375 22.0546875 C11.86374749 24.22668245 11.86374749 24.22668245 14 26 C16.41846206 25.95476692 18.72464896 25.80146049 21.125 25.5625 C32.13018469 24.67340748 43.37154064 24.67860645 54 28 C53.29920746 24.54588501 53.29920746 24.54588501 52 21 C50.16715557 19.87483915 50.16715557 19.87483915 48 19 C46.18760031 17.09465674 44.6238552 15.07492609 43 13 C45.41656376 12.35377959 47.83324646 11.70800996 50.25 11.0625 C50.93191406 10.88009766 51.61382812 10.69769531 52.31640625 10.50976562 C55.53860894 9.64946879 58.76053223 8.79316866 62 8 C62 7.34 62 6.68 62 6 C66.38461538 3 66.38461538 3 69 3 C69.33011146 17.28649043 67.99313848 29.76775281 63.24804688 43.32739258 C61.66528986 47.87201426 60.37371008 52.34483638 59.375 57.0625 C57.68088215 64.91884769 55.07520851 70.77877666 50 77 C49.505 78.155 49.01 79.31 48.5 80.5 C47.02942096 83.93135109 45.54874215 86.29196147 43 89 C42.01 89.33 41.02 89.66 40 90 C37.8125 88.5625 37.8125 88.5625 36 87 C36 89.31 36 91.62 36 94 C28.98816031 97.50591984 17.09237835 94.80847866 9.5078125 94.21875 C5.94827392 93.95427621 5.94827392 93.95427621 2.16796875 94.0390625 C-1 94 -1 94 -2.8125 92.875 C-4.38102136 90.39838733 -5.09425381 87.77762165 -6 85 C-6.66 84.67 -7.32 84.34 -8 84 C-7.95875 84.78375 -7.9175 85.5675 -7.875 86.375 C-8 89 -8 89 -10 91 C-13.6316745 90.91929612 -15.65361947 90.23210024 -18.67578125 88.20703125 C-22.23810554 83.29162244 -21.57396283 78.65713788 -21.375 72.75 C-21.36082031 71.65558594 -21.34664062 70.56117188 -21.33203125 69.43359375 C-21.22059513 63.23031649 -20.79175118 57.15229606 -20 51 C-18.68 51 -17.36 51 -16 51 C-16.474375 50.2575 -16.94875 49.515 -17.4375 48.75 C-19.71495475 44.74167963 -20.13881749 41.51799664 -20.125 36.9375 C-20.12757812 36.08027344 -20.13015625 35.22304688 -20.1328125 34.33984375 C-20 32 -20 32 -19 29 C-17.35 29 -15.7 29 -14 29 C-14 30.32 -14 31.64 -14 33 C-13.01 33 -12.02 33 -11 33 C-10.67 31.35 -10.34 29.7 -10 28 C-9.030625 27.71125 -8.06125 27.4225 -7.0625 27.125 C-3.89335797 26.35785318 -3.89335797 26.35785318 -3 24 C-1.700625 23.87625 -0.40125 23.7525 0.9375 23.625 C4.13405838 23.37764295 4.13405838 23.37764295 6.5 21.375 C7.1658591 18.21216928 7.12387601 15.22077636 7 12 C-0.43411812 10.47505269 -7.56151161 10.73387432 -15 12 C-15 9.03 -15 6.06 -15 3 C-5.57142857 -0.42857143 -5.57142857 -0.42857143 0 0 Z " fill="#49AA1A" transform="translate(60,492)"/>
<path d="M0 0 C0 0.66 0 1.32 0 2 C2.475 2.495 2.475 2.495 5 3 C4.67 3.66 4.34 4.32 4 5 C3.34 5 2.68 5 2 5 C2.33 5.66 2.66 6.32 3 7 C5.01943037 7.61461533 5.01943037 7.61461533 7.375 8 C10.67525619 8.60200113 12.11408973 9.07605982 15 11 C14.690625 11.515625 14.38125 12.03125 14.0625 12.5625 C12.70940713 15.66665423 12.38640576 18.65115007 12 22 C12.66 22 13.32 22 14 22 C14 22.66 14 23.32 14 24 C14.70721191 23.83846436 15.41442383 23.67692871 16.14306641 23.51049805 C21.1843108 22.60969117 26.26684519 22.81544249 31.375 22.8125 C32.48617187 22.80025391 33.59734375 22.78800781 34.7421875 22.77539062 C40.55769476 22.76500579 45.51908282 23.00191348 51 25 C49.44401061 21.28291422 47.94983533 18.73465091 44.8125 16.25 C43.884375 15.5075 42.95625 14.765 42 14 C42 13.34 42 12.68 42 12 C43.01320312 11.68546875 44.02640625 11.3709375 45.0703125 11.046875 C46.42203235 10.6150756 47.77358614 10.18275612 49.125 9.75 C49.79015625 9.54503906 50.4553125 9.34007812 51.140625 9.12890625 C55.67806396 7.66091129 59.08999877 5.71495635 63 3 C63.66 3 64.32 3 65 3 C65.63577812 18.07029629 62.5302768 31.50010955 58.5625 45.9375 C58.27431396 46.99171143 57.98612793 48.04592285 57.68920898 49.13208008 C54.12358406 61.72596704 48.78921962 73.17675454 40 83 C39.01 82.67 38.02 82.34 37 82 C37 81.34 37 80.68 37 80 C36.01 80 35.02 80 34 80 C34 82.31 34 84.62 34 87 C28.20810385 89.89594808 19.20609164 87.80794698 12.84912109 87.35595703 C8.55694967 87.05881484 4.30186154 86.95530533 0 87 C-0.67154933 85.71086513 -1.33708859 84.41859796 -2 83.125 C-2.37125 82.40570313 -2.7425 81.68640625 -3.125 80.9453125 C-4 79 -4 79 -4 77 C-4.66 77 -5.32 77 -6 77 C-5.95875 77.78375 -5.9175 78.5675 -5.875 79.375 C-6 82 -6 82 -8 84 C-12.22188938 83.72465939 -14.95099229 82.95673672 -18 80 C-18.4699707 77.59912109 -18.4699707 77.59912109 -18.42578125 74.7734375 C-18.41740234 73.74089844 -18.40902344 72.70835937 -18.40039062 71.64453125 C-18.37138672 70.56558594 -18.34238281 69.48664063 -18.3125 68.375 C-18.30283203 67.31925781 -18.29316406 66.26351562 -18.28320312 65.17578125 C-18.19596235 59.05375457 -17.78278631 53.07136699 -17 47 C-16.01 47 -15.02 47 -14 47 C-14.515625 45.9275 -15.03125 44.855 -15.5625 43.75 C-17.71044666 38.16935354 -16.80239809 32.80046809 -16 27 C-14.68 27.33 -13.36 27.66 -12 28 C-12 28.99 -12 29.98 -12 31 C-11.01 30.67 -10.02 30.34 -9 30 C-8.26676204 27.98491642 -8.26676204 27.98491642 -8 26 C-5.69 25.34 -3.38 24.68 -1 24 C-1 23.34 -1 22.68 -1 22 C0.134375 21.855625 1.26875 21.71125 2.4375 21.5625 C5.80777201 21.38828522 5.80777201 21.38828522 7 20 C7.49894067 15.39036268 7.49894067 15.39036268 5.78515625 11.2890625 C3.44899564 9.60211939 2.04588318 9.66218485 -0.8125 9.75 C-1.69421875 9.77449219 -2.5759375 9.79898437 -3.484375 9.82421875 C-6.36336563 10.02539046 -9.16110429 10.49045462 -12 11 C-13 10 -13 10 -13.375 6.625 C-13 3 -13 3 -11 1.0625 C-7.10146489 -0.31823119 -4.12277052 -0.2096324 0 0 Z " fill="#48A91A" transform="translate(65,279)"/>
<path d="M0 0 C1.04800781 0.00386719 1.04800781 0.00386719 2.1171875 0.0078125 C2.1171875 0.9978125 2.1171875 1.9878125 2.1171875 3.0078125 C2.7771875 3.0078125 3.4371875 3.0078125 4.1171875 3.0078125 C4.1171875 23.1378125 4.1171875 43.2678125 4.1171875 64.0078125 C-29.4279896 66.32127299 -29.4279896 66.32127299 -45.85444641 66.23440552 C-47.62519248 66.22691473 -47.62519248 66.22691473 -49.4317112 66.21927261 C-50.63889494 66.2139439 -51.84607868 66.20861519 -53.08984375 66.203125 C-55.64914335 66.19937924 -58.20844441 66.1965397 -60.76774597 66.19454956 C-66.72378306 66.18779616 -72.67974062 66.1721754 -78.6357457 66.15185058 C-85.43917979 66.12915937 -92.24261842 66.11841645 -99.04608119 66.10845971 C-112.99170034 66.08779414 -126.93725212 66.05283053 -140.8828125 66.0078125 C-139.86443464 59.4288591 -139.86443464 59.4288591 -137.95703125 56.31640625 C-137.37985352 55.36411133 -137.37985352 55.36411133 -136.79101562 54.39257812 C-136.38818359 53.74998047 -135.98535156 53.10738281 -135.5703125 52.4453125 C-135.17908203 51.79884766 -134.78785156 51.15238281 -134.38476562 50.48632812 C-133.60915052 49.22193402 -132.81491593 47.96874597 -132.0012207 46.72851562 C-131.01494741 45.21110585 -130.10988076 43.64157399 -129.21875 42.06640625 C-125.48364835 38.77476984 -121.61437185 39.43518958 -116.8203125 39.6328125 C-115.90958984 39.64699219 -114.99886719 39.66117188 -114.06054688 39.67578125 C-110.38808243 39.75697059 -107.38855892 39.83923036 -103.8828125 41.0078125 C-93.09795003 41.7845616 -85.35826151 39.97114294 -75.8828125 35.0078125 C-74.8928125 34.6778125 -73.9028125 34.3478125 -72.8828125 34.0078125 C-72.15377164 32.36747057 -71.49626007 30.69479332 -70.8828125 29.0078125 C-69.4453125 26.1953125 -69.4453125 26.1953125 -67.8828125 24.0078125 C-66.8928125 24.0078125 -65.9028125 24.0078125 -64.8828125 24.0078125 C-64.3878125 27.9678125 -64.3878125 27.9678125 -63.8828125 32.0078125 C-62.614375 31.7603125 -62.614375 31.7603125 -61.3203125 31.5078125 C-56.596361 32.19493272 -55.2514129 34.51682956 -52.3984375 38.16015625 C-50.49530831 40.48020807 -49.46458835 40.9305603 -46.5 41.32421875 C-45.59507812 41.40542969 -44.69015625 41.48664062 -43.7578125 41.5703125 C-42.84773438 41.65410156 -41.93765625 41.73789062 -41 41.82421875 C-40.30132812 41.88480469 -39.60265625 41.94539062 -38.8828125 42.0078125 C-38.8828125 41.3478125 -38.8828125 40.6878125 -38.8828125 40.0078125 C-37.7071875 39.5334375 -36.5315625 39.0590625 -35.3203125 38.5703125 C-28.95240208 35.32436878 -25.19681031 30.39309657 -22.62890625 23.77734375 C-21.61878246 20.53823831 -20.71664324 17.29633885 -19.8828125 14.0078125 C-19.25759733 11.65480675 -18.59590365 9.33724359 -17.8828125 7.0078125 C-17.5940625 5.8940625 -17.3053125 4.7803125 -17.0078125 3.6328125 C-14.8828125 1.0078125 -14.8828125 1.0078125 -12.1953125 0.4140625 C-8.11971773 0.0544512 -4.08851847 0.01108 0 0 Z " fill="#1A180B" transform="translate(177.8828125,548.9921875)"/>
<path d="M0 0 C2.62561109 -0.08074203 5.24875676 -0.1403623 7.875 -0.1875 C8.99455078 -0.22520508 8.99455078 -0.22520508 10.13671875 -0.26367188 C12.3046875 -0.29296875 12.3046875 -0.29296875 16 0 C18.25779693 3.3866954 18.24486783 4.51690851 18.22705078 8.48120117 C18.22682419 10.16260445 18.22682419 10.16260445 18.22659302 11.87797546 C18.21627045 13.08742325 18.20594788 14.29687103 18.1953125 15.54296875 C18.1924826 16.78170242 18.18965271 18.0204361 18.18673706 19.29670715 C18.17743186 22.58638087 18.15946791 25.87585863 18.1373291 29.16546631 C18.1168527 32.52369794 18.10773152 35.88195828 18.09765625 39.24023438 C18.07558271 45.82689973 18.04209522 52.41343383 18 59 C-8.42442847 61.83367164 -34.9889368 61.23460484 -61.52374268 61.1373291 C-67.79315836 61.11658543 -74.06259088 61.10767544 -80.33203125 61.09765625 C-92.55473088 61.07643609 -104.77735695 61.04246447 -117 61 C-116.41502741 57.16457673 -115.9027144 54.29266262 -113.78515625 51.01953125 C-113.34623047 50.33052734 -112.90730469 49.64152344 -112.45507812 48.93164062 C-111.76575195 47.88266602 -111.76575195 47.88266602 -111.0625 46.8125 C-110.60681641 46.10158203 -110.15113281 45.39066406 -109.68164062 44.65820312 C-107.81515375 41.75326088 -105.91533674 38.87300511 -104 36 C-102.07641602 35.64355469 -102.07641602 35.64355469 -99.75390625 35.671875 C-98.49803711 35.67960937 -98.49803711 35.67960937 -97.21679688 35.6875 C-95.90291992 35.7184375 -95.90291992 35.7184375 -94.5625 35.75 C-93.69044922 35.75515625 -92.81839844 35.7603125 -91.91992188 35.765625 C-88.31150862 35.8100021 -85.44935223 35.85021592 -82 37 C-71.69528853 37.8155936 -62.24203617 36.55136208 -54 30 C-53.67 29.34 -53.34 28.68 -53 28 C-52.34 28 -51.68 28 -51 28 C-50.67 26.35 -50.34 24.7 -50 23 C-49.01 22.67 -48.02 22.34 -47 22 C-46.690625 23.670625 -46.690625 23.670625 -46.375 25.375 C-45.92125 26.57125 -45.4675 27.7675 -45 29 C-42.1628485 30.19595537 -42.1628485 30.19595537 -39 31 C-37.29413425 32.62652316 -35.6222454 34.29006566 -34 36 C-29.23192894 37.58935702 -24.49545974 38.05509789 -19.7734375 36.05859375 C-12.03531811 31.43600932 -8.73312996 25.40497929 -6 17 C-5.19719547 13.6850487 -4.54438005 10.36656086 -4 7 C-3.01 6.67 -2.02 6.34 -1 6 C-0.67 4.02 -0.34 2.04 0 0 Z " fill="#18170B" transform="translate(162,332)"/>
<path d="M0 0 C6.72 0.72 6.72 0.72 8 2 C11.86113279 2.41762498 15.72036971 2.76928781 19.59179688 3.07421875 C25.19971682 3.58999003 29.91066306 4.51598765 35 7 C35.34372755 8.33069165 35.67757716 9.66398638 36 11 C36.99 11.33 37.98 11.66 39 12 C37.35821735 16.77609498 34.73453298 20.79382904 32 25 C35.79359451 22.01541411 39.01422492 19.22049701 41.625 15.125 C44 12 44 12 46.4375 11.4375 C49.38563141 12.0846508 52.17174328 12.94762541 55 14 C55 14.66 55 15.32 55 16 C56.98 16.495 56.98 16.495 59 17 C59.671875 18.76171875 59.671875 18.76171875 60 21 C58.890625 22.89453125 58.890625 22.89453125 57.25 24.8125 C55.18449191 27.37296856 53.56788443 29.61816815 52.375 32.6875 C50.97586271 36.05814893 49.49354597 38.35060741 47 41 C46.01 41.33 45.02 41.66 44 42 C41.8125 40.5625 41.8125 40.5625 40 39 C40 41.31 40 43.62 40 46 C32.98816031 49.50591984 21.09237835 46.80847866 13.5078125 46.21875 C9.94827392 45.95427621 9.94827392 45.95427621 6.16796875 46.0390625 C3 46 3 46 1.1875 44.875 C-0.38102136 42.39838733 -1.09425381 39.77762165 -2 37 C-2.66 36.67 -3.32 36.34 -4 36 C-3.95875 36.78375 -3.9175 37.5675 -3.875 38.375 C-4 41 -4 41 -6 43 C-10.21585977 42.72505262 -12.97040089 41.97419934 -16 39 C-16.45410156 36.45629883 -16.45410156 36.45629883 -16.390625 33.45703125 C-16.37773438 32.38388672 -16.36484375 31.31074219 -16.3515625 30.20507812 C-16.31804688 29.08552734 -16.28453125 27.96597656 -16.25 26.8125 C-16.23195312 25.68134766 -16.21390625 24.55019531 -16.1953125 23.38476562 C-16.14812652 20.58899624 -16.08230595 17.79492028 -16 15 C-15.01 16.485 -15.01 16.485 -14 18 C-11.28486749 21.83863562 -9.4814165 23.59443617 -5 25 C5.21638953 26.08470309 14.37728426 24.74847716 23 19 C15.41 18.34 7.82 17.68 0 17 C0 15.35 0 13.7 0 12 C4.95 12 9.9 12 15 12 C15 11.34 15 10.68 15 10 C12.525 9.505 12.525 9.505 10 9 C10 8.01 10 7.02 10 6 C6.7 6 3.4 6 0 6 C-0.38218767 4.34385343 -0.71395102 2.67542976 -1 1 C-0.67 0.67 -0.34 0.34 0 0 Z " fill="#E9ECED" transform="translate(56,540)"/>
<path d="M0 0 C2.33294775 -0.04241723 4.66702567 -0.04092937 7 0 C7.33 0.33 7.66 0.66 8 1 C10.00989058 1.19423312 12.02040694 1.38355847 14.03320312 1.54492188 C23.01960084 2.29200957 30.36900803 3.36900803 37 10 C36.62655279 13.23201584 35.18828083 15.55649103 33.4375 18.25 C32.98246094 18.95640625 32.52742188 19.6628125 32.05859375 20.390625 C31.53458984 21.18726563 31.53458984 21.18726563 31 22 C34.47104954 19.61985174 36.47696055 17.37220397 38.5 13.75 C40.70794393 10.09735202 40.70794393 10.09735202 43.25 9.25 C51.55299539 11.51445329 51.55299539 11.51445329 55 14 C55.9921875 16.2421875 55.9921875 16.2421875 56 19 C54.5234375 22.12109375 54.5234375 22.12109375 52.375 25.4375 C52.00761719 26.01008545 51.64023438 26.5826709 51.26171875 27.17260742 C48.75140017 31.02891919 46.10181375 34.60739122 43 38 C42.01 37.67 41.02 37.34 40 37 C40 36.34 40 35.68 40 35 C39.01 35 38.02 35 37 35 C37 37.31 37 39.62 37 42 C31.20810385 44.89594808 22.20609164 42.80794698 15.84912109 42.35595703 C11.55694967 42.05881484 7.30186154 41.95530533 3 42 C2.32845067 40.71086513 1.66291141 39.41859796 1 38.125 C0.62875 37.40570313 0.2575 36.68640625 -0.125 35.9453125 C-1 34 -1 34 -1 32 C-1.66 32 -2.32 32 -3 32 C-2.95875 32.78375 -2.9175 33.5675 -2.875 34.375 C-3 37 -3 37 -5 39 C-8.80909895 38.67582137 -10.78372163 38.14418558 -14 36 C-14.34057617 33.75341797 -14.34057617 33.75341797 -14.29296875 30.9921875 C-14.28330078 30.00605469 -14.27363281 29.01992188 -14.26367188 28.00390625 C-14.23853516 26.97136719 -14.21339844 25.93882812 -14.1875 24.875 C-14.17396484 23.83472656 -14.16042969 22.79445313 -14.14648438 21.72265625 C-14.11105228 19.14792373 -14.06165221 16.5742167 -14 14 C-13.38125 14.78375 -12.7625 15.5675 -12.125 16.375 C-8.80848615 20.47372569 -8.80848615 20.47372569 -4 22 C5.2517444 22.65188443 14.10625375 22.2624975 22 17 C15.07 16.34 8.14 15.68 1 15 C1 13.35 1 11.7 1 10 C7.435 9.505 7.435 9.505 14 9 C11.525 8.505 11.525 8.505 9 8 C9 7.01 9 6.02 9 5 C6.03 5 3.06 5 0 5 C0 3.35 0 1.7 0 0 Z " fill="#E9ECEC" transform="translate(62,324)"/>
<path d="M0 0 C0.99 0 1.98 0 3 0 C3.495 4.455 3.495 4.455 4 9 C4.99 9 5.98 9 7 9 C7.28847861 16.38825776 7.57327378 25.19256603 3.9921875 31.8828125 C2.55501136 34.68136674 2.55501136 34.68136674 2 41 C-12.19 41 -26.38 41 -41 41 C-41 25 -41 25 -39 22 C-41.69030764 23.36574291 -43.95866823 24.75913956 -46 27 C-46.61361622 30.08355042 -46.42575 32.89810712 -46 36 C-45.34 36 -44.68 36 -44 36 C-43.67 37.65 -43.34 39.3 -43 41 C-48.28 41 -53.56 41 -59 41 C-59 34.73 -59 28.46 -59 22 C-59.66 22.33 -60.32 22.66 -61 23 C-61.33 28.94 -61.66 34.88 -62 41 C-65.63 41 -69.26 41 -73 41 C-71.87408949 35.37044745 -71.87408949 35.37044745 -70.07421875 32.40625 C-69.68943359 31.76816406 -69.30464844 31.13007812 -68.90820312 30.47265625 C-68.50537109 29.82167969 -68.10253906 29.17070313 -67.6875 28.5 C-67.29626953 27.84902344 -66.90503906 27.19804688 -66.50195312 26.52734375 C-65.72553805 25.25263243 -64.93126426 23.98860487 -64.1184082 22.73681641 C-63.13549004 21.21040736 -62.22899281 19.63535347 -61.3359375 18.0546875 C-57.59977212 14.76836143 -53.72932784 15.42746907 -48.9375 15.625 C-47.57141602 15.64626953 -47.57141602 15.64626953 -46.17773438 15.66796875 C-42.50526993 15.74915809 -39.50574642 15.83141786 -36 17 C-25.21513753 17.7767491 -17.47544901 15.96333044 -8 11 C-7.01 10.67 -6.02 10.34 -5 10 C-4.27095914 8.35965807 -3.61344757 6.68698082 -3 5 C-1.5625 2.1875 -1.5625 2.1875 0 0 Z " fill="#F0F2F4" transform="translate(110,573)"/>
<path d="M0 0 C0.66 0 1.32 0 2 0 C2.28875 1.134375 2.5775 2.26875 2.875 3.4375 C3.24625 4.613125 3.6175 5.78875 4 7 C4.99 7.495 4.99 7.495 6 8 C6.23472119 15.15899622 6.3613198 23.43295125 2.9921875 29.94921875 C1.62089845 32.53806604 1.62089845 32.53806604 1 38 C-11.54 38 -24.08 38 -37 38 C-37.87265634 34.50937465 -38.13456353 31.92306781 -38.125 28.375 C-38.12757812 27.41335938 -38.13015625 26.45171875 -38.1328125 25.4609375 C-38 23 -38 23 -37 21 C-39.64746067 22.54118207 -39.64746067 22.54118207 -42 25 C-42.38833441 28.28678466 -42.38833441 28.28678466 -41.8125 31.75 C-41.544375 33.8125 -41.27625 35.875 -41 38 C-45.62 38 -50.24 38 -55 38 C-55 32.39 -55 26.78 -55 21 C-55.99 21 -56.98 21 -58 21 C-58 26.61 -58 32.22 -58 38 C-61.3 38 -64.6 38 -68 38 C-67.50159631 32.812533 -64.82842623 29.1344488 -62.0625 24.875 C-61.60681641 24.15957031 -61.15113281 23.44414062 -60.68164062 22.70703125 C-58.81622624 19.78463975 -56.92320358 16.88480537 -55 14 C-53.07641602 13.64355469 -53.07641602 13.64355469 -50.75390625 13.671875 C-49.49803711 13.67960937 -49.49803711 13.67960937 -48.21679688 13.6875 C-47.34087891 13.708125 -46.46496094 13.72875 -45.5625 13.75 C-44.69044922 13.75515625 -43.81839844 13.7603125 -42.91992188 13.765625 C-39.31150862 13.8100021 -36.44935223 13.85021592 -33 15 C-22.69528853 15.8155936 -13.24203617 14.55136208 -5 8 C-4.67 7.34 -4.34 6.68 -4 6 C-3.34 6 -2.68 6 -2 6 C-1.855625 5.195625 -1.71125 4.39125 -1.5625 3.5625 C-1 1 -1 1 0 0 Z " fill="#E8EAED" transform="translate(113,354)"/>
<path d="M0 0 C1.04800781 0.00386719 1.04800781 0.00386719 2.1171875 0.0078125 C3.21225242 3.29300725 3.21679358 5.74444665 3.1796875 9.1953125 C3.17066406 10.28199219 3.16164063 11.36867188 3.15234375 12.48828125 C3.14074219 13.31972656 3.12914062 14.15117188 3.1171875 15.0078125 C-1.55636857 14.19502014 -5.74635203 12.63297717 -10.1640625 10.9453125 C-12.73286773 10.05951759 -15.20937498 9.47275816 -17.8828125 9.0078125 C-17.5734375 10.2659375 -17.2640625 11.5240625 -16.9453125 12.8203125 C-16.11649294 16.44997056 -15.71845706 19.91827553 -15.5078125 23.6328125 C-15.23911307 27.3274296 -14.72517598 29.79887844 -12.7578125 32.9453125 C-10.8828125 36.0078125 -10.8828125 36.0078125 -10.9765625 37.9609375 C-12.23655538 40.80678349 -14.01875954 41.97420222 -16.5078125 43.8203125 C-22.75066623 48.61839151 -28.11861123 53.71906682 -32.8828125 60.0078125 C-32.8828125 57.3678125 -32.8828125 54.7278125 -32.8828125 52.0078125 C-33.87299178 53.22812519 -34.84950567 54.45953252 -35.8203125 55.6953125 C-36.63822266 56.72205078 -36.63822266 56.72205078 -37.47265625 57.76953125 C-39.24934691 60.29449901 -39.24934691 60.29449901 -39.8828125 65.0078125 C-47.4728125 65.0078125 -55.0628125 65.0078125 -62.8828125 65.0078125 C-62.22720506 57.79613071 -61.47459934 51.27065542 -59.8203125 44.3203125 C-59.63404297 43.51142578 -59.44777344 42.70253906 -59.25585938 41.86914062 C-58.80464114 39.91386161 -58.34469301 37.96060033 -57.8828125 36.0078125 C-55.00326974 36.58613071 -53.97161744 36.92423138 -51.7578125 39.0078125 C-47.6750174 41.84801779 -43.75596497 41.81856386 -38.8828125 42.0078125 C-38.8828125 41.3478125 -38.8828125 40.6878125 -38.8828125 40.0078125 C-37.7071875 39.5334375 -36.5315625 39.0590625 -35.3203125 38.5703125 C-28.95240208 35.32436878 -25.19681031 30.39309657 -22.62890625 23.77734375 C-21.61878246 20.53823831 -20.71664324 17.29633885 -19.8828125 14.0078125 C-19.25759733 11.65480675 -18.59590365 9.33724359 -17.8828125 7.0078125 C-17.5940625 5.8940625 -17.3053125 4.7803125 -17.0078125 3.6328125 C-14.8828125 1.0078125 -14.8828125 1.0078125 -12.1953125 0.4140625 C-8.11971773 0.0544512 -4.08851847 0.01108 0 0 Z " fill="#E7E9EB" transform="translate(177.8828125,548.9921875)"/>
<path d="M0 0 C0.66 0 1.32 0 2 0 C2.12117188 0.95261719 2.24234375 1.90523437 2.3671875 2.88671875 C2.53476562 4.14097656 2.70234375 5.39523437 2.875 6.6875 C3.11863281 8.54955078 3.11863281 8.54955078 3.3671875 10.44921875 C3.92478369 13.57795295 4.69008123 16.12148102 6 19 C4.68 19 3.36 19 2 19 C1.90099865 23.76881876 1.82847072 28.5370373 1.78027344 33.30664062 C1.76017856 34.92849143 1.73289746 36.55026997 1.69824219 38.171875 C1.6496273 40.5053898 1.62701111 42.83794557 1.609375 45.171875 C1.58872986 45.89493835 1.56808472 46.61800171 1.54681396 47.36297607 C1.54529167 50.79129313 1.74594019 52.65930103 3.82128906 55.44238281 C6.52260569 57.37362442 8.72554432 57.70232221 12 58 C12.66 56.02 13.32 54.04 14 52 C15.485 52.495 15.485 52.495 17 53 C18.06902939 55.30252483 19.07175817 57.6372026 20 60 C21.07381141 61.30383652 21.07381141 61.30383652 23.625 61.0625 C25.295625 61.0315625 25.295625 61.0315625 27 61 C30.84569274 60.96663173 34.56452785 60.97441764 38.375 61.5 C44.86844857 62.36498095 51.46369737 62.07750556 58 62 C58 59.69 58 57.38 58 55 C58.78375 55.33 59.5675 55.66 60.375 56 C62.84332497 57.11866511 62.84332497 57.11866511 65 57 C65.268125 56.4225 65.53625 55.845 65.8125 55.25 C67 53 67 53 68.5 51.0625 C70.13987329 48.80767423 71.05633911 46.61321478 72 44 C72.12375 44.639375 72.2475 45.27875 72.375 45.9375 C72.684375 46.9584375 72.684375 46.9584375 73 48 C73.66 48.33 74.32 48.66 75 49 C74.01 49 73.02 49 72 49 C71.5978125 50.0828125 71.5978125 50.0828125 71.1875 51.1875 C68.58931844 57.3410879 65.98776286 60.0252692 60 63 C58.453125 63.8353125 58.453125 63.8353125 56.875 64.6875 C52.04655891 66.89178833 47.64918325 67.13712456 42.375 67.125 C41.24835938 67.12757813 40.12171875 67.13015625 38.9609375 67.1328125 C36 67 36 67 33 66 C31.44733347 65.8535286 29.89004338 65.75305926 28.33203125 65.68359375 C27.43935547 65.64169922 26.54667969 65.59980469 25.62695312 65.55664062 C24.69818359 65.51732422 23.76941406 65.47800781 22.8125 65.4375 C21.87212891 65.39431641 20.93175781 65.35113281 19.96289062 65.30664062 C17.64207146 65.20061335 15.32114675 65.09854971 13 65 C12.7124585 65.59458008 12.42491699 66.18916016 12.12866211 66.80175781 C10.84761736 69.29678851 9.32711362 71.59198169 7.77514648 73.92529297 C4.09903765 79.45684872 0.92424731 84.58584231 -1 91 C-2.66611905 91.042721 -4.33382885 91.04063832 -6 91 C-7.58710194 89.41289806 -7.20157198 87.71936497 -7.28125 85.51953125 C-7.31863281 84.60236328 -7.35601563 83.68519531 -7.39453125 82.74023438 C-7.42933594 81.77408203 -7.46414062 80.80792969 -7.5 79.8125 C-7.56945574 77.92304669 -7.64228622 76.03371393 -7.71875 74.14453125 C-7.74904297 73.30253174 -7.77933594 72.46053223 -7.81054688 71.59301758 C-7.95207364 68.91451991 -7.95207364 68.91451991 -8.60375977 65.98974609 C-9.0330685 62.75048867 -8.64576057 61.08649537 -7.62109375 58.01953125 C-6.01889951 52.12844228 -5.61561376 46.51540234 -5.41015625 40.44921875 C-5.3777182 39.49975372 -5.34528015 38.5502887 -5.31185913 37.572052 C-5.18823045 33.60430399 -5.08482187 29.63629434 -4.99145508 25.66772461 C-4.91777936 22.74000882 -4.82128836 19.81368448 -4.72265625 16.88671875 C-4.70211937 15.55370979 -4.70211937 15.55370979 -4.6811676 14.19377136 C-4.47248467 8.3501247 -3.29074303 4.85165748 0 0 Z " fill="#090E0A" transform="translate(38,524)"/>
<path d="M0 0 C0.07347656 1.2684375 0.07347656 1.2684375 0.1484375 2.5625 C0.56924014 8.94709185 1.19350763 14.85792595 3 21 C2.01 21 1.02 21 0 21 C-0.12359943 25.64467639 -0.21433399 30.28839626 -0.2746582 34.93432617 C-0.2998033 36.51457389 -0.33392474 38.09470529 -0.37719727 39.67456055 C-0.43785708 41.94609232 -0.46620678 44.21608744 -0.48828125 46.48828125 C-0.51408768 47.19463211 -0.5398941 47.90098297 -0.56648254 48.6287384 C-0.62335833 50.87075317 -0.62335833 50.87075317 0 54 C2.23542524 56.11017458 2.23542524 56.11017458 5 57 C7.74239143 56.78670551 7.74239143 56.78670551 10 56 C10.33 54.35 10.66 52.7 11 51 C11.66 51 12.32 51 13 51 C13.67154933 52.28913487 14.33708859 53.58140204 15 54.875 C15.37125 55.59429687 15.7425 56.31359375 16.125 57.0546875 C17 59 17 59 17 61 C17.82242188 60.91621094 18.64484375 60.83242188 19.4921875 60.74609375 C25.64586216 60.18473082 31.37249249 59.95609279 37.5 60.7421875 C41.98949911 61.2051671 46.49229888 61.07712797 51 61 C51 58.69 51 56.38 51 54 C51.99 54 52.98 54 54 54 C54.33 54.66 54.66 55.32 55 56 C59.55015893 54.48328036 61.50057264 50.83108947 64 47 C65.98 47.495 65.98 47.495 68 48 C68 49.65 68 51.3 68 53 C67.505 51.02 67.505 51.02 67 49 C64.7522025 51.05233685 63.9977758 52.00667261 63 55 C62.34 55 61.68 55 61 55 C60.76925781 55.60457031 60.53851563 56.20914063 60.30078125 56.83203125 C58.64239277 59.59601204 57.07899548 60.31328101 54.1875 61.6875 C53.33542969 62.10386719 52.48335937 62.52023437 51.60546875 62.94921875 C46.99930144 64.80687843 42.81720382 65.13738648 37.875 65.125 C36.32425781 65.12886719 36.32425781 65.12886719 34.7421875 65.1328125 C32 65 32 65 29 64 C27.52034074 63.85426942 26.03596157 63.75336732 24.55078125 63.68359375 C23.70322266 63.64169922 22.85566406 63.59980469 21.98242188 63.55664062 C20.66081055 63.49766602 20.66081055 63.49766602 19.3125 63.4375 C18.41982422 63.39431641 17.52714844 63.35113281 16.60742188 63.30664062 C14.40509892 63.20064647 12.20266527 63.09857949 10 63 C9.7628125 63.68191406 9.525625 64.36382812 9.28125 65.06640625 C7.44173833 69.27821498 4.84738121 72.95086604 2.27734375 76.74023438 C-0.1406191 80.39111888 -1.80221676 83.73615206 -3 88 C-4.65 88 -6.3 88 -8 88 C-9.11568012 85.76863977 -9.19381143 84.37256321 -9.31640625 81.89453125 C-9.37924805 80.66573242 -9.37924805 80.66573242 -9.44335938 79.41210938 C-9.48267578 78.55423828 -9.52199219 77.69636719 -9.5625 76.8125 C-9.60568359 75.97396484 -9.64886719 75.13542969 -9.69335938 74.27148438 C-9.92762464 69.50809067 -10.04517217 64.7688904 -10 60 C-9.34 60 -8.68 60 -8 60 C-7.97494385 59.38294189 -7.9498877 58.76588379 -7.92407227 58.13012695 C-7.71422512 52.98102039 -7.4989753 47.83220728 -7.27734375 42.68359375 C-7.09993657 38.53035433 -6.94442048 34.37769425 -6.81640625 30.22265625 C-6.14369515 10.32579423 -6.14369515 10.32579423 -3 1 C-1 0 -1 0 0 0 Z " fill="#0A0F0B" transform="translate(48,305)"/>
<path d="M0 0 C0.66 0.33 1.32 0.66 2 1 C2.5093217 4.09365771 2.83750839 7.15746008 3.12304688 10.27734375 C3.59913142 14.64359665 4.72790137 17.31016135 7 21 C7.33653478 23.88805923 7.44535052 25.39134032 5.70239258 27.7734375 C5.10579834 28.30195313 4.5092041 28.83046875 3.89453125 29.375 C2.91323242 30.26445312 2.91323242 30.26445312 1.91210938 31.171875 C0.87280273 32.07679688 0.87280273 32.07679688 -0.1875 33 C-1.53577567 34.20764213 -2.88344379 35.41596296 -4.23046875 36.625 C-5.19605713 37.48158203 -5.19605713 37.48158203 -6.18115234 38.35546875 C-8.54266793 40.49065922 -10.7773958 42.72129123 -13 45 C-13 42.69 -13 40.38 -13 38 C-13.81928886 39.24556092 -14.63015186 40.49666635 -15.4375 41.75 C-15.88996094 42.44609375 -16.34242188 43.1421875 -16.80859375 43.859375 C-18.23516226 46.20433261 -18.23516226 46.20433261 -19 50 C-25.93 50 -32.86 50 -40 50 C-39.53084157 40.49954179 -37.66305501 32.06677334 -35 23 C-33.865625 23.66 -32.73125 24.32 -31.5625 25 C-26.96778122 27.26089337 -23.05637333 28.02362881 -18 27 C-10.85537438 23.91453336 -6.82397879 19.23914228 -3.875 12.125 C-2.35576873 8.12954138 -1.07862233 4.13471893 0 0 Z " fill="#E7E9EB" transform="translate(158,342)"/>
<path d="M0 0 C0.66 0 1.32 0 2 0 C2.08172936 2.5215021 2.14083373 5.04029917 2.1875 7.5625 C2.21263672 8.26697266 2.23777344 8.97144531 2.26367188 9.69726562 C2.33474784 14.83842741 1.18871793 18.27523611 -1 23 C-1.33 24.98 -1.66 26.96 -2 29 C-11.9 29 -21.8 29 -32 29 C-33.01223103 24.95107589 -33.50817048 22.13795962 -33 18 C-30.44537707 14.98685501 -28.81118244 13.33578101 -24.9140625 12.61328125 C-23.39662021 12.49348317 -21.87829037 12.38454836 -20.359375 12.28515625 C-11.90388825 11.26321828 -5.8045557 5.8045557 0 0 Z " fill="#F9FBFB" transform="translate(116,363)"/>
<path d="M0 0 C2.97 0 5.94 0 9 0 C9.33 0.66 9.66 1.32 10 2 C11.64363134 2.72159424 13.31050386 3.39351421 15 4 C15.33 3.34 15.66 2.68 16 2 C19.3 2.33 22.6 2.66 26 3 C26 3.99 26 4.98 26 6 C28.475 6.495 28.475 6.495 31 7 C31 7.66 31 8.32 31 9 C26.05 9 21.1 9 16 9 C16 10.65 16 12.3 16 14 C23.92 14.33 31.84 14.66 40 15 C33.52537231 21.47462769 26.76781085 23.23571531 17.6875 23.4375 C12.63826497 23.43174261 9.29731728 22.70879172 5 20 C3.68 18.35 2.36 16.7 1 15 C0.67 21.27 0.34 27.54 0 34 C-0.33 34 -0.66 34 -1 34 C-1.02934144 30.02084915 -1.04691265 26.04172663 -1.0625 22.0625 C-1.07506836 20.38704102 -1.07506836 20.38704102 -1.08789062 18.67773438 C-1.10641749 12.36007333 -0.84339417 6.26236773 0 0 Z " fill="#6F767D" transform="translate(40,543)"/>
<path d="M0 0 C1.98 0 3.96 0 6 0 C6 6.93 6 13.86 6 21 C3.03 21.33 0.06 21.66 -3 22 C-3.33 22.33 -3.66 22.66 -4 23 C-5.63472882 23.08700342 -7.27314055 23.10701063 -8.91015625 23.09765625 C-9.89951172 23.09443359 -10.88886719 23.09121094 -11.90820312 23.08789062 C-12.94912109 23.07951172 -13.99003906 23.07113281 -15.0625 23.0625 C-16.10728516 23.05798828 -17.15207031 23.05347656 -18.22851562 23.04882812 C-20.8190666 23.03699913 -23.40950559 23.02051689 -26 23 C-25.23686111 18.03724349 -23.19215336 15.460934 -19.6875 12 C-19.15858154 11.47108154 -18.62966309 10.94216309 -18.0847168 10.3972168 C-13.01839429 5.58200572 -7.59552855 3.20597475 -1 1 C-0.67 0.67 -0.34 0.34 0 0 Z " fill="#F1C302" transform="translate(175,591)"/>
<path d="M0 0 C0.33 0 0.66 0 1 0 C1 1.65 1 3.3 1 5 C3.97 5 6.94 5 10 5 C10 5.99 10 6.98 10 8 C11.65 8 13.3 8 15 8 C15.33 8.66 15.66 9.32 16 10 C11.38 10 6.76 10 2 10 C2 11.65 2 13.3 2 15 C9.26 15.33 16.52 15.66 24 16 C17.83697879 22.16302121 11.77815193 23.16640048 3.1875 23.3125 C-1.01795739 23.29713292 -4.27829823 23.03617072 -8 21 C-9.32 19.35 -10.64 17.7 -12 16 C-12.33 22.27 -12.66 28.54 -13 35 C-13.33 35 -13.66 35 -14 35 C-14.02936502 31.18751655 -14.04692035 27.37506274 -14.0625 23.5625 C-14.07087891 22.49322266 -14.07925781 21.42394531 -14.08789062 20.32226562 C-14.10684631 14.12375772 -13.82063259 8.1450519 -13 2 C-10.03 2 -7.06 2 -4 2 C-4 2.99 -4 3.98 -4 5 C-3.01 5 -2.02 5 -1 5 C-0.67 3.35 -0.34 1.7 0 0 Z " fill="#454950" transform="translate(61,324)"/>
<path d="M0 0 C0 6.6 0 13.2 0 20 C-2.97 20 -5.94 20 -9 20 C-9 20.66 -9 21.32 -9 22 C-19.395 22.495 -19.395 22.495 -30 23 C-30 17.9111907 -29.78033602 17.09902502 -26.49389648 13.59667969 C-25.98028564 13.09040039 -25.4666748 12.58412109 -24.9375 12.0625 C-24.14678101 11.27407715 -24.14678101 11.27407715 -23.34008789 10.46972656 C-17.2718505 4.79301674 -8.48542438 0 0 0 Z " fill="#EEC102" transform="translate(179,370)"/>
<path d="M0 0 C3.11266036 5.11106099 2.07985218 10.33600115 1 16 C-1.08075169 21.82449798 -3.92978054 27.29008332 -9 31 C-12.3125 31.3125 -12.3125 31.3125 -15 31 C-17.35323173 27.32307542 -17.43676496 24.29485546 -17 20 C-16.10212798 18.26838967 -15.19333855 16.53661611 -14.140625 14.89453125 C-12.86061111 12.76848079 -11.94573674 10.6055363 -11 8.3125 C-8.57180721 2.7758425 -6.55369404 -0.72818823 0 0 Z " fill="#B7BBC2" transform="translate(149,525)"/>
<path d="M0 0 C1.98 0 3.96 0 6 0 C6.99 1.98 6.99 1.98 8 4 C7.34 4 6.68 4 6 4 C5.87753906 5.26714844 5.75507812 6.53429687 5.62890625 7.83984375 C5.03893965 13.14954313 4.02253381 18.3351669 2.9375 23.5625 C2.298125 26.676875 1.65875 29.79125 1 33 C8.59 33 16.18 33 24 33 C24 33.33 24 33.66 24 34 C-9.33 34 -42.66 34 -77 34 C-77 33.67 -77 33.34 -77 33 C-73.37 33 -69.74 33 -66 33 C-66 27.06 -66 21.12 -66 15 C-65.01 14.67 -64.02 14.34 -63 14 C-63 20.27 -63 26.54 -63 33 C-57.72 33 -52.44 33 -47 33 C-47.495 30.525 -47.495 30.525 -48 28 C-48.66 28 -49.32 28 -50 28 C-50.72930993 24.95678856 -51.2252808 22.13297479 -51 19 C-49.25750451 16.51396409 -47.66662226 15.62088804 -45 14 C-44.34 14 -43.68 14 -43 14 C-43.33 14.99 -43.66 15.98 -44 17 C-44.33 22.28 -44.66 27.56 -45 33 C-30.81 33 -16.62 33 -2 33 C-2 30.69 -2 28.38 -2 26 C-1.00526519 23.66441718 -0.00481258 21.33126492 1 19 C1.60834389 15.87088658 1.90876076 12.73603575 2.1875 9.5625 C2.26935547 8.73556641 2.35121094 7.90863281 2.43554688 7.05664062 C2.63383855 5.03873118 2.81835402 3.01947588 3 1 C2.01 0.67 1.02 0.34 0 0 Z " fill="#4D535C" transform="translate(114,581)"/>
<path d="M0 0 C1.9375 0.375 1.9375 0.375 4 1 C5.58378987 4.16757974 4.1518125 6.54249954 3.1875 9.875 C1.30945157 16.54110219 0.01633786 23.13971944 -1 30 C5.93 30 12.86 30 20 30 C20 30.33 20 30.66 20 31 C-11.02 31 -42.04 31 -74 31 C-74 30.67 -74 30.34 -74 30 C-70.7 30 -67.4 30 -64 30 C-64 24.39 -64 18.78 -64 13 C-63.01 13 -62.02 13 -61 13 C-61 18.61 -61 24.22 -61 30 C-54.565 29.505 -54.565 29.505 -48 29 C-48.37125 26.15375 -48.37125 26.15375 -48.75 23.25 C-49.171875 20.015625 -49.171875 20.015625 -49 17 C-47.140625 14.609375 -47.140625 14.609375 -45 13 C-44.34 13 -43.68 13 -43 13 C-43 18.61 -43 24.22 -43 30 C-30.46 30 -17.92 30 -5 30 C-5 28.02 -5 26.04 -5 24 C-4.26694761 22.29490005 -3.53065425 20.59054859 -2.74365234 18.90966797 C-1.3843246 15.41897144 -1.15860267 11.76802121 -0.8125 8.0625 C-0.73064453 7.28326172 -0.64878906 6.50402344 -0.56445312 5.70117188 C-0.36635829 3.80179203 -0.18176159 1.90101238 0 0 Z " fill="#676C75" transform="translate(119,362)"/>
<path d="M0 0 C1.73538514 1.73538514 1.33604051 3.94203737 1.4375 6.3125 C1.38911343 14.41241222 -1.74984775 21.25796647 -7.0390625 27.34765625 C-9 29 -9 29 -11.625 28.9375 C-14 28 -14 28 -16 25 C-16.66230537 19.1496359 -15.36778838 16.67748385 -12 12 C-10.93867999 9.70770659 -9.97029727 7.3940005 -9.02734375 5.05078125 C-6.83303751 0.67051215 -4.89573104 -0.51534011 0 0 Z " fill="#B6B9C1" transform="translate(149,310)"/>
<path d="M0 0 C5.94 0 11.88 0 18 0 C19 5 19 5 16.9375 8.125 C13.06562819 12.24085277 9.22517378 14.14426287 3.5625 14.375 C-1.77819487 14.17686292 -6.0583238 12.9416762 -9.9375 9.0625 C-11 7 -11 7 -11 3 C-9.02 3 -7.04 3 -5 3 C-5 4.32 -5 5.64 -5 7 C-2.96758273 6.36020151 -2.96758273 6.36020151 -1 5 C-0.67 3.35 -0.34 1.7 0 0 Z " fill="#DEEBDC" transform="translate(79,523)"/>
<path d="M0 0 C1.65 0 3.3 0 5 0 C5 1.32 5 2.64 5 4 C5.99 4.33 6.98 4.66 8 5 C6.68 5 5.36 5 4 5 C4 3.68 4 2.36 4 1 C3.01 1 2.02 1 1 1 C1.33 3.31 1.66 5.62 2 8 C7.94 8 13.88 8 20 8 C19.39144973 11.04275136 18.77610498 14.00645224 18 17 C19.65 17.33 21.3 17.66 23 18 C23 18.66 23 19.32 23 20 C20.36 20 17.72 20 15 20 C14.67 21.98 14.34 23.96 14 26 C12.02 25.34 10.04 24.68 8 24 C8 23.34 8 22.68 8 22 C7.236875 22.103125 6.47375 22.20625 5.6875 22.3125 C4.800625 22.209375 3.91375 22.10625 3 22 C-0.42900312 17.5912817 -1.1414735 13.3984654 -1.125 7.9375 C-1.12757812 7.08027344 -1.13015625 6.22304688 -1.1328125 5.33984375 C-1 3 -1 3 0 0 Z " fill="#29611D" transform="translate(41,521)"/>
<path d="M0 0 C2.62527189 -0.05382106 5.24944713 -0.09358313 7.875 -0.125 C8.62136719 -0.14175781 9.36773437 -0.15851563 10.13671875 -0.17578125 C12.09194461 -0.1933959 14.04742021 -0.10320189 16 0 C18 2 18 2 18 6 C17.34 6 16.68 6 16 6 C15.79375 6.598125 15.5875 7.19625 15.375 7.8125 C13.32417777 11.07517173 11.66535049 11.73608604 8 13 C2.54511106 13.61266006 -2.22957284 13.90257071 -7.1875 11.375 C-9.34119266 8.55291996 -9.76065097 6.51045242 -10 3 C-8.35 3 -6.7 3 -5 3 C-5 4.32 -5 5.64 -5 7 C-3.35 6.67 -1.7 6.34 0 6 C0 4.02 0 2.04 0 0 Z " fill="#DDE9DB" transform="translate(84,307)"/>
<path d="M0 0 C3 2 3 2 3.59082031 3.8190918 C4.252139 9.92948595 3.4379571 14.93262733 1.75 20.8125 C1.53214844 21.64458984 1.31429687 22.47667969 1.08984375 23.33398438 C-0.03650731 27.44088429 -1.02851688 30.81002547 -4 34 C-4.33 33.34 -4.66 32.68 -5 32 C-5.99 31.67 -6.98 31.34 -8 31 C-8 30.34 -8 29.68 -8 29 C-9.65 29 -11.3 29 -13 29 C-12.73702155 23.74043097 -10.77300902 21.16201855 -7.62890625 17.21484375 C-3.81260063 12.02576633 -1.05111738 6.36321599 0 0 Z " fill="#47A51A" transform="translate(119,525)"/>
<path d="M0 0 C1.04800781 0.00386719 1.04800781 0.00386719 2.1171875 0.0078125 C3.21225242 3.29300725 3.21679358 5.74444665 3.1796875 9.1953125 C3.17066406 10.28199219 3.16164062 11.36867188 3.15234375 12.48828125 C3.14074219 13.31972656 3.12914062 14.15117188 3.1171875 15.0078125 C-1.55636857 14.19502014 -5.74635203 12.63297717 -10.1640625 10.9453125 C-12.73286773 10.05951759 -15.20937498 9.47275816 -17.8828125 9.0078125 C-18.2128125 9.6678125 -18.5428125 10.3278125 -18.8828125 11.0078125 C-18.5703125 9.3828125 -18.5703125 9.3828125 -17.8828125 7.0078125 C-17.6146875 5.9559375 -17.3465625 4.9040625 -17.0703125 3.8203125 C-14.8828125 1.0078125 -14.8828125 1.0078125 -12.19140625 0.40234375 C-8.11759595 0.05744447 -4.08571613 0.0110724 0 0 Z " fill="#E9BE03" transform="translate(177.8828125,548.9921875)"/>
<path d="M0 0 C0.12375 0.639375 0.2475 1.27875 0.375 1.9375 C0.58125 2.618125 0.7875 3.29875 1 4 C1.66 4.33 2.32 4.66 3 5 C2.01 5 1.02 5 0 5 C-0.268125 5.721875 -0.53625 6.44375 -0.8125 7.1875 C-3.41068156 13.3410879 -6.01223714 16.0252692 -12 19 C-13.03125 19.556875 -14.0625 20.11375 -15.125 20.6875 C-19.95344109 22.89178833 -24.35081675 23.13712456 -29.625 23.125 C-30.75164062 23.12757813 -31.87828125 23.13015625 -33.0390625 23.1328125 C-36 23 -36 23 -39 22 C-40.55266653 21.8535286 -42.10995662 21.75305926 -43.66796875 21.68359375 C-44.56064453 21.64169922 -45.45332031 21.59980469 -46.37304688 21.55664062 C-47.30181641 21.51732422 -48.23058594 21.47800781 -49.1875 21.4375 C-50.59805664 21.37272461 -50.59805664 21.37272461 -52.03710938 21.30664062 C-54.35792854 21.20061335 -56.67885325 21.09854971 -59 21 C-59.33 21.66 -59.66 22.32 -60 23 C-60 22.01 -60 21.02 -60 20 C-57.03 19.67 -54.06 19.34 -51 19 C-51 18.67 -51 18.34 -51 18 C-44.39508371 17.33644581 -38.12470542 16.77900652 -31.54296875 17.7421875 C-25.73738472 18.33077206 -19.82846018 18.06911218 -14 18 C-14 15.69 -14 13.38 -14 11 C-13.21625 11.33 -12.4325 11.66 -11.625 12 C-9.15667503 13.11866511 -9.15667503 13.11866511 -7 13 C-6.731875 12.4225 -6.46375 11.845 -6.1875 11.25 C-5 9 -5 9 -3.5 7.0625 C-1.86012671 4.80767423 -0.94366089 2.61321478 0 0 Z " fill="#636872" transform="translate(110,568)"/>
<path d="M0 0 C0.99 0.66 1.98 1.32 3 2 C3 3.32 3 4.64 3 6 C3.66 6.33 4.32 6.66 5 7 C4.07880379 10.44208251 3.13527661 13.87765002 2.1875 17.3125 C1.92646484 18.28896484 1.66542969 19.26542969 1.39648438 20.27148438 C1.13544922 21.20927734 0.87441406 22.14707031 0.60546875 23.11328125 C0.36981201 23.97735596 0.13415527 24.84143066 -0.10864258 25.73168945 C-1.05193601 28.13216584 -2.05579631 29.34066132 -4 31 C-4 30.34 -4 29.68 -4 29 C-4.86625 28.7834375 -4.86625 28.7834375 -5.75 28.5625 C-7.83333333 28.04166667 -9.91666667 27.52083333 -12 27 C-11.4348613 22.7767338 -9.9903293 20.08055307 -7.625 16.5625 C-2.53306498 8.82045986 -2.53306498 8.82045986 0 0 Z " fill="#46A419" transform="translate(121,309)"/>
<path d="M0 0 C7.92 0.33 15.84 0.66 24 1 C17.52537231 7.47462769 10.76781085 9.23571531 1.6875 9.4375 C-3.37347319 9.43172922 -6.59894161 8.51013467 -11 6 C-11 5.01 -11 4.02 -11 3 C-2.585 2.505 -2.585 2.505 6 2 C3.03 1.505 3.03 1.505 0 1 C0 0.67 0 0.34 0 0 Z " fill="#60636B" transform="translate(56,557)"/>
<path d="M0 0 C5.28 0 10.56 0 16 0 C17.38226016 2.76452033 17.09525387 5.0461363 17.0625 8.125 C17.05347656 9.22070312 17.04445312 10.31640625 17.03515625 11.4453125 C17.02355469 12.28835938 17.01195312 13.13140625 17 14 C15.97519531 13.65066406 14.95039063 13.30132812 13.89453125 12.94140625 C12.53390863 12.48160964 11.17322849 12.0219832 9.8125 11.5625 C9.13896484 11.33240234 8.46542969 11.10230469 7.77148438 10.86523438 C4.20485509 9.66475915 0.7128839 8.62722505 -3 8 C-3 7.34 -3 6.68 -3 6 C-2.34 6 -1.68 6 -1 6 C-0.67 4.02 -0.34 2.04 0 0 Z " fill="#F1C403" transform="translate(162,332)"/>
<path d="M0 0 C0.33 0.66 0.66 1.32 1 2 C1.99 2.33 2.98 2.66 4 3 C4 5 4 5 2.5 6.625 C2.005 7.07875 1.51 7.5325 1 8 C3.64 8 6.28 8 9 8 C7.02 8.99 7.02 8.99 5 10 C5.33 10.66 5.66 11.32 6 12 C5.360625 11.835 4.72125 11.67 4.0625 11.5 C-2.35996431 10.4514344 -8.6155579 10.91328645 -15 12 C-15 9.03 -15 6.06 -15 3 C-5.57142857 -0.42857143 -5.57142857 -0.42857143 0 0 Z " fill="#409815" transform="translate(60,492)"/>
<path d="M0 0 C1.98 0 3.96 0 6 0 C6.66 1.32 7.32 2.64 8 4 C7.34 4 6.68 4 6 4 C5.81630859 5.90072266 5.81630859 5.90072266 5.62890625 7.83984375 C5.03893965 13.14954313 4.02253381 18.3351669 2.9375 23.5625 C2.298125 26.676875 1.65875 29.79125 1 33 C8.59 33 16.18 33 24 33 C24 33.33 24 33.66 24 34 C1.56 34 -20.88 34 -44 34 C-44 33.67 -44 33.34 -44 33 C-30.14 33 -16.28 33 -2 33 C-2 30.69 -2 28.38 -2 26 C-1.00526519 23.66441718 -0.00481258 21.33126492 1 19 C1.60834389 15.87088658 1.90876076 12.73603575 2.1875 9.5625 C2.26935547 8.73556641 2.35121094 7.90863281 2.43554688 7.05664062 C2.63383855 5.03873118 2.81835402 3.01947588 3 1 C2.01 0.67 1.02 0.34 0 0 Z " fill="#4F5257" transform="translate(114,581)"/>
<path d="M0 0 C0 0.66 0 1.32 0 2 C1.65 2.33 3.3 2.66 5 3 C4.67 3.66 4.34 4.32 4 5 C3.34 5 2.68 5 2 5 C3.25541557 7.51083114 4.50063488 7.87125446 7 9 C4.04837831 9.9838739 2.25064121 10.07528458 -0.8125 10 C-4.67231736 9.94921293 -8.1944176 10.31694675 -12 11 C-13 10 -13 10 -13.375 6.625 C-13 3 -13 3 -11 1.0625 C-7.10146489 -0.31823119 -4.12277052 -0.2096324 0 0 Z " fill="#419A15" transform="translate(65,279)"/>
<path d="M0 0 C3.63 0 7.26 0 11 0 C7.39250994 4.7553278 2.64676771 5.96852376 -3 7 C-9.41091006 7.48342129 -15.08033371 7.74646255 -21 5 C-21 4.01 -21 3.02 -21 2 C-10.605 1.505 -10.605 1.505 0 1 C0 0.67 0 0.34 0 0 Z " fill="#82858E" transform="translate(74,340)"/>
<path d="M0 0 C0.66 0.99 1.32 1.98 2 3 C1.01 3.495 1.01 3.495 0 4 C-0.33 9.94 -0.66 15.88 -1 22 C-4.63 22 -8.26 22 -12 22 C-10.8742651 16.37132549 -10.8742651 16.37132549 -9.00390625 13.30078125 C-8.41319336 12.32334961 -8.41319336 12.32334961 -7.81054688 11.32617188 C-7.19276367 10.3294043 -7.19276367 10.3294043 -6.5625 9.3125 C-6.15451172 8.63638672 -5.74652344 7.96027344 -5.32617188 7.26367188 C-3.70800884 4.61072922 -2.20518618 2.20518618 0 0 Z " fill="#E6E8EA" transform="translate(49,592)"/>
<path d="M0 0 C6.0185022 -0.34889868 6.0185022 -0.34889868 9 0 C11.0625 1.875 11.0625 1.875 12 4 C12 4.66 12 5.32 12 6 C11.01 6.33 10.02 6.66 9 7 C10.32 7.99 11.64 8.98 13 10 C12.34 11.32 11.68 12.64 11 14 C5.25 14.125 5.25 14.125 3 13 C2.67 12.01 2.34 11.02 2 10 C1.34 9.67 0.68 9.34 0 9 C0 6.03 0 3.06 0 0 Z " fill="#D5DCDC" transform="translate(40,543)"/>
<path d="M0 0 C0.99 0 1.98 0 3 0 C3 5.61 3 11.22 3 17 C9.435 16.505 9.435 16.505 16 16 C15.67 12.04 15.34 8.08 15 4 C16.32 3.34 17.64 2.68 19 2 C19.495 9.92 19.495 9.92 20 18 C10.1 18 0.2 18 -10 18 C-10 17.67 -10 17.34 -10 17 C-6.7 17 -3.4 17 0 17 C0 11.39 0 5.78 0 0 Z " fill="#5E646A" transform="translate(55,375)"/>
<path d="M0 0 C1.32 0.33 2.64 0.66 4 1 C4 2.65 4 4.3 4 6 C3.505 4.02 3.505 4.02 3 2 C0.7522025 4.05233685 -0.0022242 5.00667261 -1 8 C-1.66 8 -2.32 8 -3 8 C-3.23074219 8.60457031 -3.46148437 9.20914062 -3.69921875 9.83203125 C-5.35760723 12.59601204 -6.92100452 13.31328101 -9.8125 14.6875 C-10.66457031 15.10386719 -11.51664063 15.52023437 -12.39453125 15.94921875 C-17.08521089 17.84096211 -21.28007572 18.11780137 -26.3125 18.0625 C-27.38113281 18.05347656 -28.44976562 18.04445313 -29.55078125 18.03515625 C-30.35902344 18.02355469 -31.16726562 18.01195312 -32 18 C-30.68 17.34 -29.36 16.68 -28 16 C-30.97 15.505 -30.97 15.505 -34 15 C-34 14.67 -34 14.34 -34 14 C-27.07 14 -20.14 14 -13 14 C-13 11.69 -13 9.38 -13 7 C-12.01 7 -11.02 7 -10 7 C-9.67 7.66 -9.34 8.32 -9 9 C-4.44984107 7.48328036 -2.49942736 3.83108947 0 0 Z " fill="#5C636F" transform="translate(112,352)"/>
<path d="M0 0 C7.425 0.99 7.425 0.99 15 2 C13.90697674 8.55813953 13.90697674 8.55813953 11 11 C10.01 12.485 10.01 12.485 9 14 C9 13.34 9 12.68 9 12 C7.8553125 12.1546875 7.8553125 12.1546875 6.6875 12.3125 C4 12 4 12 2.25 9.9375 C1 7 1 7 0 0 Z " fill="#48B720" transform="translate(40,531)"/>
<path d="M0 0 C0.99 0.66 1.98 1.32 3 2 C2.01 2 1.02 2 0 2 C0 7.61 0 13.22 0 19 C-3.3 19 -6.6 19 -10 19 C-9.47868283 14.04274768 -7.14796788 10.71792007 -4.4375 6.6875 C-4.01275391 6.04232422 -3.58800781 5.39714844 -3.15039062 4.73242188 C-2.10733607 3.15026046 -1.05462128 1.57447499 0 0 Z " fill="#DCDFE1" transform="translate(55,373)"/>
<path d="M0 0 C0.33 0 0.66 0 1 0 C1.90184607 9.41928119 -0.66997571 15.73073809 -6.4375 23.125 C-9.53388609 25.39064835 -11.24611504 25.43649825 -15 25 C-15 23.68 -15 22.36 -15 21 C-14.113125 20.87625 -13.22625 20.7525 -12.3125 20.625 C-5.39614365 17.23207047 -3.50542354 7.88991473 -1 1 C-0.67 0.67 -0.34 0.34 0 0 Z " fill="#BEC1C8" transform="translate(149,531)"/>
<path d="M0 0 C2.97 0 5.94 0 9 0 C9.66 1.65 10.32 3.3 11 5 C9.68 5 8.36 5 7 5 C7 5.66 7 6.32 7 7 C8.32 7.66 9.64 8.32 11 9 C10.67 10.32 10.34 11.64 10 13 C7.69 12.67 5.38 12.34 3 12 C3 11.01 3 10.02 3 9 C2.01 9 1.02 9 0 9 C0 6.03 0 3.06 0 0 Z " fill="#D8DFDE" transform="translate(48,326)"/>
<path d="M0 0 C0.66 0 1.32 0 2 0 C2.5645789 6.49265729 0.565727 11.1060408 -2 17 C-3.33333333 20 -3.33333333 20 -2 23 C-3.1875 24.5625 -3.1875 24.5625 -5 26 C-7.5625 25.875 -7.5625 25.875 -10 25 C-12.45331002 21.32003497 -12.39507893 19.34586828 -12 15 C-11.01 14.34 -10.02 13.68 -9 13 C-9 14.98 -9 16.96 -9 19 C-5.60055187 17.86685062 -5.40430899 17.53453437 -3.875 14.5 C-2.02355415 10.6070359 -1.43263108 7.06354064 -1.17578125 2.78515625 C-1 1 -1 1 0 0 Z " fill="#A8ACB2" transform="translate(145,313)"/>
<path d="M0 0 C0.33 0 0.66 0 1 0 C1 1.65 1 3.3 1 5 C3.97 5 6.94 5 10 5 C10 5.99 10 6.98 10 8 C11.65 8 13.3 8 15 8 C15.33 8.66 15.66 9.32 16 10 C11.38 10 6.76 10 2 10 C2 11.65 2 13.3 2 15 C0.35 15 -1.3 15 -3 15 C-3.12375 14.195625 -3.2475 13.39125 -3.375 12.5625 C-3.684375 11.2940625 -3.684375 11.2940625 -4 10 C-4.66 9.67 -5.32 9.34 -6 9 C-6 8.34 -6 7.68 -6 7 C-4.7934375 6.6596875 -4.7934375 6.6596875 -3.5625 6.3125 C-2.716875 5.879375 -1.87125 5.44625 -1 5 C-0.10613836 2.45224694 -0.10613836 2.45224694 0 0 Z " fill="#6B7578" transform="translate(61,324)"/>
<path d="M0 0 C2.33294775 -0.04241723 4.66702567 -0.04092937 7 0 C7.33 0.33 7.66 0.66 8 1 C7.71269945 3.33944736 7.38063221 5.6739143 7 8 C4.03878992 8.85380428 1.3912356 9.13517764 -1.6875 9.125 C-2.47511719 9.12757813 -3.26273438 9.13015625 -4.07421875 9.1328125 C-6 9 -6 9 -7 8 C-7.04092937 5.66702567 -7.04241723 3.33294775 -7 1 C-6.01 1 -5.02 1 -4 1 C-4 2.32 -4 3.64 -4 5 C-2.68 5 -1.36 5 0 5 C0 3.35 0 1.7 0 0 Z " fill="#C4CEC7" transform="translate(49,521)"/>
<path d="M0 0 C0.66 0 1.32 0 2 0 C2 0.66 2 1.32 2 2 C7.30681855 2.94343441 12.25823864 2.99478605 17.64453125 2.7421875 C18.42183594 2.82726562 19.19914062 2.91234375 20 3 C20.99 4.485 20.99 4.485 22 6 C17.05 6 12.1 6 7 6 C7 7.98 7 9.96 7 12 C5.35 12.33 3.7 12.66 2 13 C0.74335022 10.09399739 0 8.20395416 0 5 C0.99 5 1.98 5 3 5 C3 4.34 3 3.68 3 3 C2.34 3 1.68 3 1 3 C0.67 2.01 0.34 1.02 0 0 Z " fill="#395530" transform="translate(77,301)"/>
<path d="M0 0 C1.32 0.33 2.64 0.66 4 1 C4 1.99 4 2.98 4 4 C10.6 4.66 17.2 5.32 24 6 C23.67 6.66 23.34 7.32 23 8 C19.8765076 8.25427918 16.75153179 8.47412319 13.625 8.6875 C12.29082031 8.79674805 12.29082031 8.79674805 10.9296875 8.90820312 C10.07890625 8.96298828 9.228125 9.01777344 8.3515625 9.07421875 C7.56604004 9.13182373 6.78051758 9.18942871 5.97119141 9.2487793 C5.32069824 9.16668213 4.67020508 9.08458496 4 9 C3.34 8.01 2.68 7.02 2 6 C1.67 12.27 1.34 18.54 1 25 C0.67 25 0.34 25 0 25 C0 16.75 0 8.5 0 0 Z " fill="#484B53" transform="translate(39,552)"/>
<path d="M0 0 C6.93 0 13.86 0 21 0 C21 0.99 21 1.98 21 3 C18.36 3.33 15.72 3.66 13 4 C15.31 4.33 17.62 4.66 20 5 C20 5.33 20 5.66 20 6 C17.79229195 6.08165496 15.58369575 6.13948488 13.375 6.1875 C11.53035156 6.23970703 11.53035156 6.23970703 9.6484375 6.29296875 C5.73592336 5.9787947 3.35929782 4.96906533 0 3 C0 2.01 0 1.02 0 0 Z " fill="#979AA3" transform="translate(45,560)"/>
<path d="M0 0 C3.96 0.33 7.92 0.66 12 1 C12 2.65 12 4.3 12 6 C10.02 6.99 10.02 6.99 8 8 C8 8.66 8 9.32 8 10 C6.02 10 4.04 10 2 10 C0.26265853 6.19956554 0 4.40285423 0 0 Z " fill="#48BB1F" transform="translate(49,316)"/>
<path d="M0 0 C0.33 0 0.66 0 1 0 C1.48416771 6.56316229 1.45675529 12.73167508 -3 18 C-4.33214663 18.33804473 -5.66539993 18.67177518 -7 19 C-7.33 19.99 -7.66 20.98 -8 22 C-8.52626305 13.40437016 -4.92137067 6.81556729 0 0 Z " fill="#C5C8D0" transform="translate(143,313)"/>
<path d="M0 0 C0.33 0.99 0.66 1.98 1 3 C0.01 4.485 0.01 4.485 -1 6 C-1.16713569 8.62531524 -1.16713569 8.62531524 -1 11 C-2.65 11.33 -4.3 11.66 -6 12 C-6 13.98 -6 15.96 -6 18 C-7.32 17.67 -8.64 17.34 -10 17 C-10.1875 14.625 -10.1875 14.625 -10 12 C-9.01 11.34 -8.02 10.68 -7 10 C-6.27034634 7.43717258 -6.27034634 7.43717258 -6 5 C-8.64 5 -11.28 5 -14 5 C-14 4.34 -14 3.68 -14 3 C-12.60974609 2.80083984 -12.60974609 2.80083984 -11.19140625 2.59765625 C-9.99386719 2.42105469 -8.79632813 2.24445313 -7.5625 2.0625 C-6.36753906 1.88847656 -5.17257813 1.71445312 -3.94140625 1.53515625 C-1.12044324 1.31014787 -1.12044324 1.31014787 0 0 Z " fill="#2E6C1F" transform="translate(67,312)"/>
<path d="M0 0 C0.12375 0.639375 0.2475 1.27875 0.375 1.9375 C0.58125 2.618125 0.7875 3.29875 1 4 C1.66 4.33 2.32 4.66 3 5 C2.01 5 1.02 5 0 5 C-0.268125 5.721875 -0.53625 6.44375 -0.8125 7.1875 C-3.9172296 14.54080695 -7.82234296 17.09280874 -14.875 20.3125 C-19.08463538 21.23861978 -22.78242804 20.69355628 -27 20 C-27 19.67 -27 19.34 -27 19 C-20.565 18.505 -20.565 18.505 -14 18 C-14 15.69 -14 13.38 -14 11 C-13.21625 11.33 -12.4325 11.66 -11.625 12 C-9.15667503 13.11866511 -9.15667503 13.11866511 -7 13 C-6.731875 12.4225 -6.46375 11.845 -6.1875 11.25 C-5 9 -5 9 -3.5 7.0625 C-1.86012671 4.80767423 -0.94366089 2.61321478 0 0 Z " fill="#4D5461" transform="translate(110,568)"/>
<path d="M0 0 C0.66 0.33 1.32 0.66 2 1 C1.77834138 7.87141735 0.23296226 11.82454836 -3.5 17.55859375 C-5.55912053 20.91002691 -6.75907619 24.27722856 -8 28 C-9.65 28 -11.3 28 -13 28 C-12.76654403 24.26470442 -11.50420994 22.16205257 -9.25 19.3125 C-4.70833833 13.53419311 -1.20635124 7.30296504 0 0 Z " fill="#236809" transform="translate(119,525)"/>
<path d="M0 0 C0.33 2.97 0.66 5.94 1 9 C-1.12691797 8.55065113 -3.25150039 8.09023527 -5.375 7.625 C-6.55835938 7.36976563 -7.74171875 7.11453125 -8.9609375 6.8515625 C-12 6 -12 6 -14 4 C-14 3.01 -14 2.02 -14 1 C-4.58997722 -0.14806378 -4.58997722 -0.14806378 0 0 Z " fill="#EBC612" transform="translate(180,549)"/>
<path d="M0 0 C5.28 0 10.56 0 16 0 C17 2 17 2 17 8 C12.71 7.01 8.42 6.02 4 5 C3.67 3.68 3.34 2.36 3 1 C2.01 0.67 1.02 0.34 0 0 Z " fill="#E2BE11" transform="translate(162,332)"/>
<path d="M0 0 C1.98 0 3.96 0 6 0 C6.625 2.375 6.625 2.375 7 5 C3.92770932 8.07229068 1.62811424 7.97870799 -2.6875 8.125 C-6 8 -6 8 -7 7 C-7.04080783 5.00041636 -7.04254356 2.99954746 -7 1 C-6.01 1 -5.02 1 -4 1 C-4 1.99 -4 2.98 -4 4 C-3.01 3.67 -2.02 3.34 -1 3 C-0.67 2.01 -0.34 1.02 0 0 Z " fill="#C8D2CA" transform="translate(57,306)"/>
<path d="M0 0 C0.33 0.66 0.66 1.32 1 2 C-4.28 2 -9.56 2 -15 2 C-15 3.98 -15 5.96 -15 8 C-15.66 8.66 -16.32 9.32 -17 10 C-17.99 10 -18.98 10 -20 10 C-21.07525194 7.34771188 -22.09456151 4.71631546 -23 2 C-15.26134446 -0.13480153 -7.99976044 -0.20483028 0 0 Z " fill="#344930" transform="translate(94,520)"/>
<path d="M0 0 C0.66 0.33 1.32 0.66 2 1 C2.59394495 6.70187153 1.47197007 9.52995716 -1.80859375 14.203125 C-3.1776203 16.09837332 -3.1776203 16.09837332 -4 19 C-4.66 19 -5.32 19 -6 19 C-6.66 21.31 -7.32 23.62 -8 26 C-9.32 26 -10.64 26 -12 26 C-11.35541706 22.28929283 -9.69315211 19.74031774 -7.625 16.625 C-2.5426878 8.84426176 -2.5426878 8.84426176 0 0 Z " fill="#216508" transform="translate(121,309)"/>
<path d="M0 0 C6.72 0.72 6.72 0.72 8 2 C9.84891946 2.23363881 11.70488031 2.41303635 13.5625 2.5625 C14.57441406 2.64628906 15.58632812 2.73007812 16.62890625 2.81640625 C17.80259766 2.90728516 17.80259766 2.90728516 19 3 C19 3.33 19 3.66 19 4 C16.36 4.33 13.72 4.66 11 5 C11.33 6.32 11.66 7.64 12 9 C11.34 9 10.68 9 10 9 C10 8.01 10 7.02 10 6 C6.7 6 3.4 6 0 6 C-0.38218767 4.34385343 -0.71395102 2.67542976 -1 1 C-0.67 0.67 -0.34 0.34 0 0 Z " fill="#C2D3C7" transform="translate(56,540)"/>
<path d="M0 0 C0.85696068 3.31262111 1.46228519 6.62007831 2 10 C1.01 10 0.02 10 -1 10 C-1 11.32 -1 12.64 -1 14 C-2.98 14 -4.96 14 -7 14 C-7.31838702 10.79907334 -7.1952605 9.31331341 -5.46875 6.54296875 C-4.49421875 5.37701172 -4.49421875 5.37701172 -3.5 4.1875 C-2.8503125 3.39730469 -2.200625 2.60710938 -1.53125 1.79296875 C-1.0259375 1.20128906 -0.520625 0.60960937 0 0 Z " fill="#474D56" transform="translate(145,600)"/>
<path d="M0 0 C0.99 0 1.98 0 3 0 C3.87157015 7.49550328 1.09524157 15.87301124 -3.41796875 21.890625 C-5 23 -5 23 -9 23 C-9 22.34 -9 21.68 -9 21 C-8.05125 20.2575 -7.1025 19.515 -6.125 18.75 C-1.38213192 14.89990709 -0.9926774 10.46411034 -0.375 4.625 C-0.24316572 3.08390272 -0.11583111 1.54238266 0 0 Z " fill="#585A64" transform="translate(144,529)"/>
<path d="M0 0 C2.64 0 5.28 0 8 0 C7.875 2.3125 7.875 2.3125 7 5 C4.05402394 6.96398404 2.19964545 8.15784809 -1.375 7.6875 C-1.91125 7.460625 -2.4475 7.23375 -3 7 C-3 5.68 -3 4.36 -3 3 C-2.01 3 -1.02 3 0 3 C0 2.01 0 1.02 0 0 Z " fill="#56D404" transform="translate(102,535)"/>
<path d="M0 0 C0 0.66 0 1.32 0 2 C2.31 2 4.62 2 7 2 C6.67 2.66 6.34 3.32 6 4 C-2.91 4 -11.82 4 -21 4 C-21.33 4.66 -21.66 5.32 -22 6 C-22 5.01 -22 4.02 -22 3 C-17.545 2.505 -17.545 2.505 -13 2 C-13 1.67 -13 1.34 -13 1 C-8.61414671 0.29826347 -4.44209357 -0.10834375 0 0 Z " fill="#444848" transform="translate(72,585)"/>
<path d="M0 0 C0.66 0 1.32 0 2 0 C2 5.61 2 11.22 2 17 C14.54 17 27.08 17 40 17 C40 17.33 40 17.66 40 18 C27.13 18 14.26 18 1 18 C-0.14707435 14.55877696 -0.36502708 11.49233743 -0.625 7.875 C-0.72039062 6.61429687 -0.81578125 5.35359375 -0.9140625 4.0546875 C-0.94242187 3.04664063 -0.97078125 2.03859375 -1 1 C-0.67 0.67 -0.34 0.34 0 0 Z " fill="#787878" transform="translate(74,375)"/>
<path d="M0 0 C2.33294775 -0.04241723 4.66702567 -0.04092937 7 0 C7.33 0.33 7.66 0.66 8 1 C9.68183948 1.23287008 11.3712416 1.41264166 13.0625 1.5625 C13.98160156 1.64628906 14.90070313 1.73007812 15.84765625 1.81640625 C16.91306641 1.90728516 16.91306641 1.90728516 18 2 C18 2.33 18 2.66 18 3 C15.36 3.33 12.72 3.66 10 4 C10 4.99 10 5.98 10 7 C10.66 7.33 11.32 7.66 12 8 C11.01 8 10.02 8 9 8 C9 7.01 9 6.02 9 5 C6.03 5 3.06 5 0 5 C0 3.35 0 1.7 0 0 Z " fill="#BFD0C4" transform="translate(62,324)"/>
<path d="M0 0 C0 0.66 0 1.32 0 2 C-0.9178125 2.06058594 -1.835625 2.12117187 -2.78125 2.18359375 C-9.218508 2.62311242 -15.60935705 3.10530999 -22 4 C-21.28125 2.05078125 -21.28125 2.05078125 -20 0 C-13.69046603 -2.00206366 -6.43891683 -0.8904885 0 0 Z " fill="#3E8F18" transform="translate(94,518)"/>
<path d="M0 0 C0.96661363 3.12180401 0.98988909 5.52083795 0.5625 8.75 C0.46066406 9.54921875 0.35882813 10.3484375 0.25390625 11.171875 C0.12822266 12.07679688 0.12822266 12.07679688 0 13 C-1.98 13 -3.96 13 -6 13 C-5.58221009 7.2902045 -3.42453429 4.39042858 0 0 Z " fill="#383E47" transform="translate(145,379)"/>
<path d="M0 0 C0.66 0 1.32 0 2 0 C2.68790946 7.9109588 -0.05572827 14.83736905 -5 21 C-5.99 20.67 -6.98 20.34 -8 20 C-7.21625 19.0925 -6.4325 18.185 -5.625 17.25 C-2.5064106 12.96854675 -2.00050874 8.64410043 -1.359375 3.4765625 C-1 1 -1 1 0 0 Z " fill="#585A64" transform="translate(145,313)"/>
<path d="M0 0 C0.99 0.495 0.99 0.495 2 1 C2 1.66 2 2.32 2 3 C8.435 2.505 8.435 2.505 15 2 C15 2.66 15 3.32 15 4 C17.31 4 19.62 4 22 4 C21.67 4.66 21.34 5.32 21 6 C14.4 5.67 7.8 5.34 1 5 C0.67 3.35 0.34 1.7 0 0 Z " fill="#25292A" transform="translate(63,363)"/>
<path d="M0 0 C0.66 0 1.32 0 2 0 C2 0.66 2 1.32 2 2 C2.99 2.33 3.98 2.66 5 3 C5 4.32 5 5.64 5 7 C5.66 7.33 6.32 7.66 7 8 C5.71520959 9.50589388 4.42195918 11.00457375 3.125 12.5 C2.40570313 13.3353125 1.68640625 14.170625 0.9453125 15.03125 C0.30335937 15.6809375 -0.33859375 16.330625 -1 17 C-1.66 17 -2.32 17 -3 17 C-1.54663734 12.88213914 0.58657273 9.62014091 3 6 C3.23084394 3.8794682 3.23084394 3.8794682 1.5 2.4375 C1.005 1.963125 0.51 1.48875 0 1 C0 0.67 0 0.34 0 0 Z " fill="#75C050" transform="translate(91,548)"/>
<path d="M0 0 C1.65 0 3.3 0 5 0 C5 1.32 5 2.64 5 4 C5.99 4.33 6.98 4.66 8 5 C6.68 5 5.36 5 4 5 C4 3.68 4 2.36 4 1 C3.01 1 2.02 1 1 1 C1.33 3.31 1.66 5.62 2 8 C5.63 8.33 9.26 8.66 13 9 C11 11 11 11 8.94140625 11.23046875 C8.15636719 11.21628906 7.37132812 11.20210937 6.5625 11.1875 C5.38880859 11.17783203 5.38880859 11.17783203 4.19140625 11.16796875 C2 11 2 11 -1 10 C-1.125 3.375 -1.125 3.375 0 0 Z " fill="#43663D" transform="translate(41,521)"/>
<path d="M0 0 C-0.25 2.375 -0.25 2.375 -1 5 C-2.8125 6.375 -2.8125 6.375 -5 7 C-7.25 6.625 -7.25 6.625 -9 6 C-9 3 -9 3 -7.875 1.3125 C-5.23540902 -0.53521368 -3.14195927 -0.20946395 0 0 Z " fill="#56D602" transform="translate(112,319)"/>
<path d="M0 0 C0.66 0 1.32 0 2 0 C2.33 5.28 2.66 10.56 3 16 C2.34 16 1.68 16 1 16 C0.46706165 14.25364835 -0.05090663 12.50272348 -0.5625 10.75 C-0.85253906 9.77546875 -1.14257812 8.8009375 -1.44140625 7.796875 C-1.99542641 5.02289993 -1.99868686 3.60735013 -1 1 C-0.67 0.67 -0.34 0.34 0 0 Z " fill="#383F4B" transform="translate(72,377)"/>
<path d="M0 0 C-1.53218685 3.63061667 -3.7183144 5.9863773 -6.5 8.75 C-7.69109375 9.94882812 -7.69109375 9.94882812 -8.90625 11.171875 C-11 13 -11 13 -13 13 C-13 13.99 -13 14.98 -13 16 C-12.34 16.33 -11.68 16.66 -11 17 C-11.99 17 -12.98 17 -14 17 C-14.3671875 14.89453125 -14.3671875 14.89453125 -14 12 C-12.30813729 9.61944787 -10.24607125 7.68480164 -8.125 5.6875 C-7.56941406 5.13771484 -7.01382813 4.58792969 -6.44140625 4.02148438 C-2.29503106 0 -2.29503106 0 0 0 Z " fill="#C3A003" transform="translate(163,376)"/>
<path d="M0 0 C2.625 -0.1875 2.625 -0.1875 5 0 C6.85776765 3.13498292 7.20140476 5.37471432 7 9 C6.34 8.34 5.68 7.68 5 7 C4.34 7.66 3.68 8.32 3 9 C3 7.35 3 5.7 3 4 C1.35 3.67 -0.3 3.34 -2 3 C-1.34 2.01 -0.68 1.02 0 0 Z " fill="#ACB0B6" transform="translate(144,525)"/>
<path d="M0 0 C-1.61010527 4.07376031 -4.53822271 6.76507069 -7.625 9.75 C-8.140625 10.25660156 -8.65625 10.76320313 -9.1875 11.28515625 C-10.45383339 12.52803902 -11.7263144 13.76465276 -13 15 C-13.66 14.67 -14.32 14.34 -15 14 C-13.58474822 12.41540185 -12.1677358 10.83237609 -10.75 9.25 C-9.96109375 8.36828125 -9.1721875 7.4865625 -8.359375 6.578125 C-2.33939394 0 -2.33939394 0 0 0 Z " fill="#282825" transform="translate(161,372)"/>
<path d="M0 0 C0.33 0.99 0.66 1.98 1 3 C-0.9375 6.1875 -0.9375 6.1875 -3 9 C-3.66 8.67 -4.32 8.34 -5 8 C-5 6.68 -5 5.36 -5 4 C-7.97 4 -10.94 4 -14 4 C-14 3.67 -14 3.34 -14 3 C-12.60974609 2.80083984 -12.60974609 2.80083984 -11.19140625 2.59765625 C-9.99386719 2.42105469 -8.79632813 2.24445313 -7.5625 2.0625 C-6.36753906 1.88847656 -5.17257813 1.71445312 -3.94140625 1.53515625 C-1.12044324 1.31014787 -1.12044324 1.31014787 0 0 Z " fill="#275E1A" transform="translate(67,312)"/>
<path d="M0 0 C0.66 0.99 1.32 1.98 2 3 C1.01 3.495 1.01 3.495 0 4 C-0.33 9.94 -0.66 15.88 -1 22 C-1.33 22 -1.66 22 -2 22 C-2.33 17.71 -2.66 13.42 -3 9 C-3.99 9.33 -4.98 9.66 -6 10 C-4.6302836 6.00499382 -2.74277578 3.19990508 0 0 Z " fill="#BEC2C5" transform="translate(49,592)"/>
<path d="M0 0 C0.12375 0.639375 0.2475 1.27875 0.375 1.9375 C0.58125 2.618125 0.7875 3.29875 1 4 C1.66 4.33 2.32 4.66 3 5 C2.01 5 1.02 5 0 5 C-0.2475 5.721875 -0.495 6.44375 -0.75 7.1875 C-2.10983674 10.24713266 -3.82917754 12.4673738 -6 15 C-7.32 14.67 -8.64 14.34 -10 14 C-9.01 13.67 -8.02 13.34 -7 13 C-5.94978897 11.15028304 -5.94978897 11.15028304 -5 9 C-4.505 8.360625 -4.01 7.72125 -3.5 7.0625 C-1.86012671 4.80767423 -0.94366089 2.61321478 0 0 Z " fill="#666B75" transform="translate(110,568)"/>
<path d="M0 0 C-1.58667578 3.90285767 -4.13350481 6.33520982 -7.125 9.25 C-8.03507813 10.14203125 -8.94515625 11.0340625 -9.8828125 11.953125 C-10.58148438 12.62859375 -11.28015625 13.3040625 -12 14 C-12.66 13.34 -13.32 12.68 -14 12 C-12.04761147 9.99387601 -10.08862178 7.99507567 -8.125 6 C-7.29162109 5.14148438 -7.29162109 5.14148438 -6.44140625 4.265625 C-2.2265625 0 -2.2265625 0 0 0 Z " fill="#D9B003" transform="translate(164,597)"/>
<path d="M0 0 C-1.46966358 3.39859703 -3.38037514 5.64963709 -6 8.25 C-6.70125 8.95640625 -7.4025 9.6628125 -8.125 10.390625 C-10 12 -10 12 -12 12 C-12 12.66 -12 13.32 -12 14 C-12.66 13.67 -13.32 13.34 -14 13 C-2.80645161 0 -2.80645161 0 0 0 Z " fill="#383835" transform="translate(161,593)"/>
<path d="M0 0 C1.32 0 2.64 0 4 0 C4 0.99 4 1.98 4 3 C4.66 3.33 5.32 3.66 6 4 C4.68 4.33 3.36 4.66 2 5 C1.67 11.27 1.34 17.54 1 24 C0.67 24 0.34 24 0 24 C0 16.08 0 8.16 0 0 Z " fill="#75787F" transform="translate(47,335)"/>
<path d="M0 0 C2 2 2 2 2 5 C8.93 5 15.86 5 23 5 C23 5.33 23 5.66 23 6 C14.75 6 6.5 6 -2 6 C-1.34 4.02 -0.68 2.04 0 0 Z " fill="#5A5C61" transform="translate(116,387)"/>
<path d="M0 0 C3.3 0 6.6 0 10 0 C10 0.66 10 1.32 10 2 C12.31 2 14.62 2 17 2 C13.47320901 4.35119399 11.97120515 4.21443452 7.8125 4.125 C6.72582031 4.10695313 5.63914062 4.08890625 4.51953125 4.0703125 C3.27236328 4.03550781 3.27236328 4.03550781 2 4 C3.32 3.34 4.64 2.68 6 2 C3.03 1.505 3.03 1.505 0 1 C0 0.67 0 0.34 0 0 Z " fill="#4C525C" transform="translate(78,366)"/>
<path d="M0 0 C0.99 0.99 1.98 1.98 3 3 C2.07161713 4.31896465 1.13194268 5.62998689 0.1875 6.9375 C-0.33457031 7.66839844 -0.85664062 8.39929688 -1.39453125 9.15234375 C-3 11 -3 11 -6 12 C-4.43358249 7.69235185 -2.31663844 3.93828536 0 0 Z " fill="#75C04F" transform="translate(99,334)"/>
<path d="M0 0 C2 1 2 1 2.62109375 2.734375 C3.04706889 5.28144284 3.09646629 7.66856169 3.0625 10.25 C3.05347656 11.14203125 3.04445312 12.0340625 3.03515625 12.953125 C3.02355469 13.62859375 3.01195312 14.3040625 3 15 C2.67 15 2.34 15 2 15 C2 12.69 2 10.38 2 8 C1.01 8 0.02 8 -1 8 C-1.33 8.99 -1.66 9.98 -2 11 C-1.85892253 9.54119891 -1.71197585 8.08296449 -1.5625 6.625 C-1.48128906 5.81289063 -1.40007812 5.00078125 -1.31640625 4.1640625 C-1 2 -1 2 0 0 Z " fill="#BBBDBD" transform="translate(158,342)"/>
<path d="M0 0 C0.33 0.99 0.66 1.98 1 3 C-0.125 4.5 -0.125 4.5 -2 6 C-5.1875 6.1875 -5.1875 6.1875 -8 6 C-8 4.68 -8 3.36 -8 2 C-6.865625 1.855625 -5.73125 1.71125 -4.5625 1.5625 C-1.19222799 1.38828522 -1.19222799 1.38828522 0 0 Z " fill="#C4C8CF" transform="translate(142,550)"/>
<path d="M0 0 C0.99 0.33 1.98 0.66 3 1 C2.34 1 1.68 1 1 1 C1.33 2.98 1.66 4.96 2 7 C5.3 7 8.6 7 12 7 C9.07422062 9.92577938 6.21663843 9.42659177 2.21484375 9.65625 C1.48394531 9.7696875 0.75304688 9.883125 0 10 C-0.33 10.66 -0.66 11.32 -1 12 C-0.67 8.04 -0.34 4.08 0 0 Z " fill="#538448" transform="translate(49,306)"/>
<path d="M0 0 C0.12375 0.639375 0.2475 1.27875 0.375 1.9375 C0.684375 2.9584375 0.684375 2.9584375 1 4 C1.66 4.33 2.32 4.66 3 5 C1.52459016 10.6557377 1.52459016 10.6557377 -1 12.3125 C-1.99 12.6528125 -1.99 12.6528125 -3 13 C-3.99 13.495 -3.99 13.495 -5 14 C-3.87548273 11.0280615 -2.77706209 8.66559313 -1 6 C-0.60986284 4.0103005 -0.26797351 2.00980131 0 0 Z " fill="#409E14" transform="translate(123,311)"/>
<path d="M0 0 C4.62 0 9.24 0 14 0 C13.67 0.66 13.34 1.32 13 2 C10.69 2 8.38 2 6 2 C5.67 2.66 5.34 3.32 5 4 C5 3.34 5 2.68 5 2 C3.02 2 1.04 2 -1 2 C-0.67 1.34 -0.34 0.68 0 0 Z " fill="#1A380C" transform="translate(58,299)"/>
<path d="M0 0 C2.70583756 0.25560029 5.37210774 0.56759978 8.0625 0.9375 C9.20041992 1.08735352 9.20041992 1.08735352 10.36132812 1.24023438 C12.24154246 1.48856457 14.12086128 1.74365751 16 2 C16 2.33 16 2.66 16 3 C11.05 3.33 6.1 3.66 1 4 C0.34 3.01 -0.32 2.02 -1 1 C-0.67 0.67 -0.34 0.34 0 0 Z " fill="#83868F" transform="translate(53,342)"/>
<path d="M0 0 C2.64 0 5.28 0 8 0 C8 0.33 8 0.66 8 1 C10.97 1.495 10.97 1.495 14 2 C14 2.33 14 2.66 14 3 C7.565 3.495 7.565 3.495 1 4 C0.67 2.68 0.34 1.36 0 0 Z " fill="#51555C" transform="translate(43,557)"/>
<path d="M0 0 C0.33 0 0.66 0 1 0 C1.05395478 1.62463842 1.09277195 3.24978541 1.125 4.875 C1.14820313 5.77992188 1.17140625 6.68484375 1.1953125 7.6171875 C1 10 1 10 -1 12 C-1 10.35 -1 8.7 -1 7 C-1.66 7.66 -2.32 8.32 -3 9 C-2.5020163 5.26512223 -2.12508244 3.18762365 0 0 Z " fill="#B6B9C0" transform="translate(149,531)"/>
<path d="M0 0 C1.98 0 3.96 0 6 0 C6.66 1.32 7.32 2.64 8 4 C7.34 4 6.68 4 6 4 C5.67 4.99 5.34 5.98 5 7 C4.34 6.34 3.68 5.68 3 5 C3 3.68 3 2.36 3 1 C2.01 0.67 1.02 0.34 0 0 Z " fill="#444952" transform="translate(114,581)"/>
<path d="M0 0 C0.66 0.66 1.32 1.32 2 2 C0.25 4.5 0.25 4.5 -2 7 C-3.32 7 -4.64 7 -6 7 C-6 6.34 -6 5.68 -6 5 C-4.04072937 3.2856382 -2.04119788 1.61594832 0 0 Z " fill="#686B74" transform="translate(141,545)"/>
<path d="M0 0 C0.66 0.99 1.32 1.98 2 3 C0.35 5.64 -1.3 8.28 -3 11 C-3.99 10.67 -4.98 10.34 -6 10 C-5.65066406 9.52949219 -5.30132812 9.05898438 -4.94140625 8.57421875 C-4.48636719 7.95160156 -4.03132812 7.32898438 -3.5625 6.6875 C-2.88380859 5.76517578 -2.88380859 5.76517578 -2.19140625 4.82421875 C-0.82663692 2.90322899 -0.82663692 2.90322899 0 0 Z " fill="#63656F" transform="translate(143,323)"/>
<path d="M0 0 C1.32 0.33 2.64 0.66 4 1 C4 2.65 4 4.3 4 6 C3.67 4.68 3.34 3.36 3 2 C0.9754262 3.93254772 -0.42105792 5.63158688 -2 8 C-2.66 7.67 -3.32 7.34 -4 7 C-2.79618552 4.50638429 -1.54571278 2.31856917 0 0 Z " fill="#787D84" transform="translate(112,352)"/>
<path d="M0 0 C4.95 0.99 4.95 0.99 10 2 C10 2.33 10 2.66 10 3 C7.69 3 5.38 3 3 3 C3 4.65 3 6.3 3 8 C1.5268006 5.25002779 0.77595125 3.10380501 0 0 Z " fill="#5B4F14" transform="translate(158,339)"/>
<path d="M0 0 C2.62386487 3.06117568 3 3.73173127 3 8 C0.36 8 -2.28 8 -5 8 C-3.68 7.67 -2.36 7.34 -1 7 C-0.67 4.69 -0.34 2.38 0 0 Z " fill="#58A535" transform="translate(57,522)"/>
<path d="M0 0 C0.66 0 1.32 0 2 0 C2 5.61 2 11.22 2 17 C-0.84439863 14.15560137 -0.44167057 11.89898074 -0.6875 7.9375 C-0.77386719 6.66777344 -0.86023438 5.39804687 -0.94921875 4.08984375 C-0.96597656 3.07019531 -0.98273438 2.05054688 -1 1 C-0.67 0.67 -0.34 0.34 0 0 Z " fill="#878D95" transform="translate(74,375)"/>
<path d="M0 0 C0.33 0 0.66 0 1 0 C1.82622671 5.60563042 2.06795656 10.42289352 1 16 C0.67 16 0.34 16 0 16 C-0.91397824 10.31302429 -0.91397824 5.68697571 0 0 Z " fill="#81868D" transform="translate(118,371)"/>
<path d="M0 0 C0 1.98 0 3.96 0 6 C-1.65 6 -3.3 6 -5 6 C-5 5.01 -5 4.02 -5 3 C-1.55555556 0 -1.55555556 0 0 0 Z " fill="#1C5A06" transform="translate(111,547)"/>
<path d="M0 0 C0.33 0.66 0.66 1.32 1 2 C3.97 2 6.94 2 10 2 C10 2.66 10 3.32 10 4 C7.98177083 3.90234375 5.96354167 3.8046875 3.9453125 3.70703125 C3.30335937 3.80371094 2.66140625 3.90039062 2 4 C1.34 4.99 0.68 5.98 0 7 C-1.125 2.25 -1.125 2.25 0 0 Z " fill="#3D7132" transform="translate(54,537)"/>
<path d="M0 0 C0.33 0.66 0.66 1.32 1 2 C-0.65 3.65 -2.3 5.3 -4 7 C-4 6.34 -4 5.68 -4 5 C-4.99 5 -5.98 5 -7 5 C-5.73223544 2.46447088 -4.53176935 2.15080425 -2 1 C-1.34 0.67 -0.68 0.34 0 0 Z " fill="#535966" transform="translate(109,358)"/>
<path d="M0 0 C1.98 0.66 3.96 1.32 6 2 C6 3.32 6 4.64 6 6 C4.35 6 2.7 6 1 6 C0.67 4.02 0.34 2.04 0 0 Z " fill="#868C93" transform="translate(57,333)"/>
<path d="M0 0 C0.99 0.33 1.98 0.66 3 1 C3 1.99 3 2.98 3 4 C3.66 4.33 4.32 4.66 5 5 C4.34 5 3.68 5 3 5 C3.33 6.32 3.66 7.64 4 9 C1.47740939 7.02579865 1.0070192 6.03254358 0.3125 2.8125 C0.209375 1.884375 0.10625 0.95625 0 0 Z " fill="#71747D" transform="translate(40,552)"/>
<path d="M0 0 C3.3 0 6.6 0 10 0 C8.68 1.32 7.36 2.64 6 4 C5.34 3.67 4.68 3.34 4 3 C4.33 2.34 4.66 1.68 5 1 C3.35 1 1.7 1 0 1 C0 0.67 0 0.34 0 0 Z " fill="#7F828A" transform="translate(70,558)"/>
<path d="M0 0 C1.88343932 3.76687864 2.22057835 5.02958963 2 9 C0.68 9.33 -0.64 9.66 -2 10 C-1.34 6.7 -0.68 3.4 0 0 Z " fill="#409E15" transform="translate(121,527)"/>
<path d="M0 0 C0.33 1.32 0.66 2.64 1 4 C-1.97 6.475 -1.97 6.475 -5 9 C-3.7508258 5.54074837 -2.32472205 2.85306797 0 0 Z " fill="#555B65" transform="translate(145,379)"/>
<path d="M0 0 C2.64 0 5.28 0 8 0 C5.6875 2.0625 5.6875 2.0625 3 4 C2.01 3.67 1.02 3.34 0 3 C0 2.01 0 1.02 0 0 Z " fill="#5E6169" transform="translate(50,339)"/>
<path d="M0 0 C0.99 0.99 1.98 1.98 3 3 C1.625 5.5 1.625 5.5 0 8 C-0.66 8 -1.32 8 -2 8 C-1.34 5.36 -0.68 2.72 0 0 Z " fill="#5FB733" transform="translate(99,334)"/>
<path d="M0 0 C0.33 0 0.66 0 1 0 C1.24954005 1.43410368 1.47392642 2.87260072 1.6875 4.3125 C1.87892578 5.51326172 1.87892578 5.51326172 2.07421875 6.73828125 C2 9 2 9 0.51953125 10.79296875 C0.01808594 11.19128906 -0.48335937 11.58960938 -1 12 C-1.02698189 10.37509046 -1.04638757 8.75005367 -1.0625 7.125 C-1.07410156 6.22007812 -1.08570313 5.31515625 -1.09765625 4.3828125 C-1 2 -1 2 0 0 Z " fill="#B2B6BA" transform="translate(146,597)"/>
<path d="M0 0 C-0.66 2.97 -1.32 5.94 -2 9 C-2.33 9 -2.66 9 -3 9 C-3 7.35 -3 5.7 -3 4 C-3.99 3.67 -4.98 3.34 -6 3 C-2.25 0 -2.25 0 0 0 Z " fill="#7B818A" transform="translate(71,595)"/>
<path d="M0 0 C0.33 0.99 0.66 1.98 1 3 C-0.3125 5.1875 -0.3125 5.1875 -2 7 C-2.66 7 -3.32 7 -4 7 C-3.39816251 4.97954558 -2.72693904 2.97888961 -2 1 C-1.34 0.67 -0.68 0.34 0 0 Z " fill="#1C5C05" transform="translate(117,535)"/>
<path d="M0 0 C0.33 0.99 0.66 1.98 1 3 C0.01 3.99 -0.98 4.98 -2 6 C-2.99 5.34 -3.98 4.68 -5 4 C-3 1 -3 1 0 0 Z " fill="#BCBFC7" transform="translate(145,329)"/>
</svg>
